<?xml version="1.0" encoding="UTF-8"?><svg xmlns="http://www.w3.org/2000/svg" viewBox="0 0 421.57 224.01"><defs><style>.d{fill:#7a4e2b;}.e{isolation:isolate;}.f{fill:#316631;}.g{fill:#8f5b33;}.h{fill:#377337;}.i{fill:#fffcfa;mix-blend-mode:overlay;opacity:.2;}.j{fill:#ebd9ce;mix-blend-mode:multiply;}.k{fill:#264f26;}</style></defs><g class="e"><g id="a"/><g id="b"><g id="c"><g><path class="g" d="M281.66,43.83l-1.94,1.85s-2.02,9.92-3.28,16.53c-.64,3.32-1.91,.08-2.94-1.26-1.03-1.34-1.18-2.57-1.75-3.96-.57-1.39-2.11-2.57-2.55-4.63-.44-2.06-.33-4.84-.33-4.84l-1.03-.31,.46,5.01s1.85,5.79,4.4,10.34c2.51,4.49,1.61,7.96,1.59,8.05-.64,1.02-1.28,1.89-1.28,3.13,0,2.24-1.47,7.71-3.24,10.65-1.77,2.93-4.41,.9-5.87-2.71,0,0,0-.01,0-.02-4.76-26.73-23.08-46.4-58.29-46.4-21.52,0-36.72,7.36-46.38,19.17h-.01c-3.53,3.11-6.61-1.1-7.69-5.57-1.08-4.47-4.09-12.65-5.25-17.28-1.16-4.63-1-13.88-1-13.88l-1.23-.54s-.23,10.72,0,14.27c.13,1.94,1.28,5.5,2.55,10.67-.08,.01-.13,.06-.09,.21,.21,.88-.66,1.48-1.97,.61-1.31-.87-3.78-2.65-4.15-3.42-.37-.77-1.73-1.08-3.12-1.65-1.39-.57-3.75-1.85-3.75-1.85h-.72s3.39,2.31,5.71,3.81c2.31,1.49,5.04,4.32,6.38,5.09,1.33,.77,2.77,2.07,3.36,4.88,.47,2.58,.89,5.4,1.22,8.49,.74,7.04,.08,12.96-.63,16.8-.41,1.49-.77,3-1.09,4.54-.02,.08-.04,.12-.04,.12h.01c-1.1,5.36-1.65,11.02-1.65,16.89v70.9c0,31.46,21.14,56.47,59.56,56.47s59.56-25.01,59.56-56.47v-50.1s1.75-10.83,5.76-19.78c4.01-8.95,6.79-18.51,6.48-25.15s4.26-28.7,4.26-28.7Zm-52.34,123.71c0,14.7-8.25,24.75-23.72,24.75s-23.72-10.06-23.72-24.75v-8.47c0-5.86,8.66-15.12,11.75-21.91,.89-1.95,1.86-4.18,2.82-6.48h0s1.81-2.39,4.66-3.7c2.85-1.31,5.98-3.28,6.21-3.59,.23-.31,2.47-3.66,2.47-3.66l-.35-.62s-1.66,3.01-2.51,3.66c-.85,.66-2.08,.35-2.93,1.08-.85,.73-2.39,1.89-3.47,2.01-1.08,.12-2.01-.25-1.36-2.04h0c1.24-3.33,2.23-6.37,2.63-8.41,.93-4.78,2.78-14.04,2.78-14.04l-2.52,2.06s0,6.99-2.47,11.52c-2.47,4.53-4.42,7.07-4.83,9.3-.41,2.22-3.09,10.35-5.14,11.99-2.06,1.65-3.5,4.73-4.83,3.81-1.34-.93-2.91-1.95-2.91-6.38v-38.84c0-16.5,6.7-28.1,23.72-28.1s23.72,11.6,23.72,28.1v72.71Z"/><g><path class="d" d="M244.65,72.7c-.64,4.48-1.59,9.31-2.59,14.42-1.87,9.51-3.79,19.35-3.79,27.5,0,10.88,9.78,34.2,14.95,35.65,.16,.04,.34,.08,.52,.08,.51,0,1.08-.22,1.55-1,2.36-3.89,2.91-11.11,3.45-18.09,.31-4.1,.64-8.33,1.32-11.76,.79-3.96,3.11-6.01,6.04-8.62,.19-.17,.38-.34,.57-.51,.09-.35,.18-.71,.28-1.08-.43,.39-.85,.77-1.26,1.13-2.9,2.58-5.4,4.8-6.24,8.96-.7,3.47-1.02,7.72-1.33,11.84-.53,6.91-1.07,14.05-3.36,17.81-.37,.6-.81,.81-1.38,.65-4.49-1.26-14.5-23.83-14.5-35.05,0-8.08,1.92-17.89,3.78-27.38,1-5.12,1.95-9.96,2.59-14.46,1.3-9.07-1.06-19.38-4.11-28.11-.29-.19-.57-.38-.86-.57,3.16,8.81,5.68,19.36,4.36,28.59Z"/><path class="d" d="M194.7,47.32c6.18-5.75,13.08-6.99,15.81-6.03,4.85,1.72,5.34,16.33,5.27,27.24,.2,.08,.42,.14,.62,.23,.09-11.45-.39-26.17-5.68-28.05-3.42-1.21-10.67,.8-16.43,6.16-4.62,4.3-11.32,13.69-8.74,30.63,.17-.31,.31-.63,.49-.93-2.19-16.14,4.22-25.11,8.67-29.25Z"/><path class="d" d="M245.1,196.86c.08,.03,.17,.04,.25,.04,1.88,0,4.99-7.5,8.56-16.56l.29-.73c.44-1.11,.89-2.22,1.34-3.32,2.43-5.97,4.53-11.12,2.89-12.51-.6-.51-1.26-.4-1.94-.14-.42,.16-.9,.34-1.55,.34-1.56,0-3.58-1.09-6.18-3.32-.21-.19-.43-.28-.63-.28-.14,0-.36,.05-.55,.27-.85,.98-.61,5-.14,8.15,.33,2.23-.6,8.29-1.49,14.15-1.46,9.59-1.95,13.54-.84,13.91Zm2.94-28.16c-.63-4.29-.48-7.1,0-7.65,.05-.06,.07-.06,.08-.06,.02,0,.09,0,.23,.13,2.72,2.34,4.87,3.47,6.58,3.47,.76,0,1.32-.21,1.77-.38,.29-.11,.54-.21,.76-.21,.13,0,.31,.03,.56,.24,1.29,1.1-.92,6.54-3.07,11.81-.45,1.1-.9,2.22-1.34,3.33l-.29,.73c-2.22,5.65-6.36,16.17-7.98,16.17h-.04c-.69-.56,.43-7.89,1.24-13.25,.9-5.91,1.83-12.01,1.49-14.34Z"/><path class="d" d="M260.08,184.66c-.83,2.85-1.69,5.8-2.57,8.29-3.23,9.14-18.48,22.62-27.2,24.04-5.22,.85-8.76,2.77-8.8,4.76,0,.2,.03,.41,.11,.63,.2-.04,.41-.08,.61-.12-.07-.16-.1-.33-.1-.49,.04-1.64,3.52-3.39,8.29-4.17,9.07-1.48,24.33-14.96,27.68-24.45,.89-2.51,1.75-5.46,2.58-8.32,1.32-4.51,2.74-9.36,4.31-12.48,.04-.49,.07-.98,.09-1.48-1.84,2.97-3.39,8.28-5,13.78Z"/><path class="d" d="M179.69,215.63c-8.94-4.8-13.53-11.11-16.88-15.72-1.57-2.16-2.93-4.03-4.36-5.23-.71-.59-1.31-.76-1.79-.49-.99,.56-1.13,2.97-.8,6.66,.24,.34,.48,.68,.72,1.02-.38-3.65-.45-6.68,.38-7.14,.28-.16,.75,.14,1.09,.42,1.37,1.15,2.71,2.99,4.26,5.12,3.38,4.65,8.02,11.03,17.08,15.9,5.65,3.04,14.21,5.58,21.94,7.71,.87,.04,1.76,.07,2.65,.08-8.29-2.25-18.09-5.01-24.29-8.34Z"/><path class="d" d="M223.29,73.95c.19,.22,.39,.43,.57,.66,.37-15.01-1.72-31.75-11.09-39.04-.41-.03-.81-.07-1.22-.1,9.78,6.68,12.06,23.35,11.74,38.47Z"/><path class="d" d="M150.44,175.06c-.76-6.68-1.47-13-1.68-17.75-.66-15.29,1.5-56.18,2.3-63.83,.46-4.38-.21-10.24-2.77-16.33-.09,.35-.16,.71-.24,1.06,2.24,5.68,2.83,11.11,2.4,15.21-.8,7.66-2.96,48.61-2.3,63.93,.2,4.78,.92,11.1,1.68,17.8,.69,6.11,1.42,12.55,1.83,18.45,.23,.49,.47,.97,.71,1.45-.39-6.32-1.18-13.34-1.93-19.97Z"/><path class="d" d="M238.48,67.94c.51,7.6-.96,15.57-2.66,24.79-1.04,5.66-2.12,11.5-2.9,18.02-1.67,14.06,3.33,23.22,7.75,31.29,1.07,1.96,2.09,3.81,2.99,5.7,4.22,8.77,7.39,12.77,10.6,13.38,.27,.05,.53,.08,.8,.08,1.25,0,2.48-.56,3.67-1.66,2.37-2.19,4.57-8.3,6.42-15.11v-2.39c-1.95,7.58-4.3,14.7-6.84,17.05-1.32,1.22-2.6,1.69-3.94,1.43-3.78-.72-7.42-7.35-10.16-13.04-.92-1.9-1.93-3.76-3.01-5.73-4.37-7.99-9.33-17.06-7.68-30.92,.77-6.5,1.85-12.34,2.89-17.98,1.71-9.26,3.18-17.26,2.66-24.94-.35-5.29-2.93-11.72-5.41-17.94-1.54-3.85-3.04-7.6-3.94-10.9-.24-.08-.46-.17-.7-.25,.9,3.44,2.46,7.36,4.07,11.38,2.47,6.17,5.03,12.56,5.37,17.75Z"/><path class="d" d="M261.74,166.43c-2.05,7.54-4.18,15.33-6.38,21.81-6.32,18.58-28.45,30.34-53.79,28.58-21.39-1.48-37.56-13.77-44.37-33.73-4.83-14.17-3.43-51.16-2.4-78.17,.23-6.09,.45-11.85,.56-16.59,.37-15.27,4.25-28.93,8.64-38.94-.37,.34-.75,.68-1.11,1.03-4.2,9.95-7.8,23.18-8.16,37.89-.11,4.73-.33,10.49-.56,16.58-1.03,27.06-2.44,64.12,2.43,78.4,6.89,20.2,23.26,32.64,44.91,34.14,1.69,.12,3.36,.17,5.01,.17,23.49,0,43.41-11.57,49.4-29.17,2.21-6.5,4.34-14.3,6.39-21.85,.93-3.43,1.88-6.89,2.83-10.23v-2.24c-1.14,3.92-2.27,8.08-3.42,12.3Z"/><path class="d" d="M230.87,66.13c.73,10.07-.35,17-1.83,23.09,.07,.62,.11,1.26,.16,1.9,1.71-6.56,3.1-13.89,2.29-25.03-.99-13.54-5.82-23.57-11.92-29.65-.36-.06-.71-.13-1.07-.18,6.29,5.89,11.36,16.02,12.37,29.88Z"/><path class="d" d="M162.17,80.62c-4.56,31.35-5.51,61.88-2.47,79.67,3.34,19.56,5.04,27.88,13.65,37.51,6.78,7.59,22,15.19,36.4,15.19,4.02,0,7.97-.59,11.66-1.94,16.91-6.19,24.31-19.47,22.62-40.6-.81-10.1-5.57-19.98-10.17-29.54-1.6-3.32-3.16-6.58-4.53-9.78v1.55c1.23,2.79,2.59,5.62,3.98,8.5,4.58,9.51,9.31,19.34,10.11,29.32,1.66,20.82-5.61,33.89-22.22,39.97-16.67,6.1-38.83-3.51-47.39-13.08-8.49-9.5-10.18-17.77-13.5-37.2-3.03-17.73-2.08-48.19,2.47-79.48,3.17-21.78,11.55-34.51,19.36-41.86-.46,.16-.92,.3-1.37,.46-7.61,7.55-15.53,20.23-18.6,41.3Z"/><path class="d" d="M263.66,103.58c-.87,.9-1.7,1.73-2.51,2.52-3.72,3.65-6.66,6.54-6.83,12.08-.44,14.03-1.7,16.48-2.41,16.69-.31,.09-.72-.4-.93-.7-3.42-4.91-8.39-15.48-3.25-31.1,4.35-13.2,8.7-30.02,8.18-43.12-.22-.36-.44-.71-.66-1.06,.82,13.13-3.65,30.46-8.11,43.99-5.23,15.87-.16,26.64,3.33,31.65,.46,.66,.91,.98,1.35,.98,.09,0,.18-.01,.26-.04,1.62-.48,2.5-5.8,2.86-17.27,.16-5.3,2.88-7.97,6.64-11.66,.81-.8,1.65-1.62,2.53-2.53,2.49-2.59,6.38-7.92,9.8-13.78,.36-1.02,.7-2.04,1.02-3.05-3.7,6.83-8.41,13.43-11.27,16.4Z"/><path class="d" d="M229.26,196.29c-2.68,3.91-4.26,6.36-3.77,7.36,.09,.18,.29,.41,.73,.43,.07,0,.14,0,.23,0,1.6,0,9.71-.94,12.54-19.5,1.84-12.04,1.48-20.35-.99-23.42-.62-.77-1.35-1.19-2.23-1.24-.27,0-.53,.12-.76,.35-1.64,1.67-1.94,9.42-1.88,13.29,.12,6.67-.6,17.89-3.03,21.49l-.84,1.23Zm4.48-22.73c-.09-5.3,.47-11.6,1.7-12.85,.11-.11,.22-.17,.34-.17h0c.64,.04,1.22,.38,1.73,1.01,1.37,1.7,3.3,6.93,.86,22.94-2.75,18.06-10.42,18.98-11.93,18.98-.07,0-.14,0-.19,0-.17,0-.2-.07-.21-.09-.37-.75,2-4.21,3.73-6.74l.84-1.23c2.81-4.15,3.21-17.17,3.13-21.84Z"/><path class="d" d="M254.26,92.02c-.57,1.94-1.1,3.79-1.58,5.52-1.31,4.75,.67,7.15,2.76,7.76,.44,.13,.9,.19,1.38,.19,3.04,0,6.6-2.62,8.2-7.78,1.78-5.73,2.17-8.64,2.32-11.98-.2-.05-.41-.12-.61-.23-.14,3.38-.5,6.25-2.3,12.03-1.74,5.6-5.85,8.05-8.82,7.18-1.91-.56-3.53-2.7-2.34-7.01,.48-1.73,1.01-3.58,1.58-5.52,2-6.88,4.37-15.06,5.55-23.11-.15-.39-.3-.78-.46-1.17-1.12,8.35-3.59,16.94-5.68,24.11Z"/><path class="d" d="M262.45,75.29c-2.47,7.5-6.27,22.29-4.45,23.61,.1,.07,.23,.13,.39,.13,.2,0,.45-.09,.76-.34,2.5-2.06,5.1-8.14,6.42-14.17-.17-.19-.33-.41-.49-.63-1.25,6.06-3.83,12.27-6.33,14.33-.21,.17-.35,.22-.39,.19-1.18-.86,1.59-13.54,4.38-22.06-.09-.35-.19-.7-.28-1.05Z"/><path class="d" d="M179.66,78.79c-.75-.22-1.49,.02-2.19,.72-2.49,2.49-2.7,11.13-2.96,22.07-.1,4.03-.2,8.2-.42,12.48-.25,4.74-.7,9.41-1.14,13.92-1.05,10.77-2.03,20.95-.3,31.38,.17,.99,.32,1.97,.48,2.93,2.2,13.5,3.94,24.16,13.83,31.39,4.26,3.11,11.48,7.55,18.05,7.55,1.78,0,3.52-.33,5.13-1.1,3.43-1.64,5.84-5.11,7.24-10.35-.24,.12-.48,.22-.72,.33-1.36,4.78-3.62,7.96-6.78,9.46-7.55,3.6-18.29-3.27-22.56-6.39-9.69-7.08-11.41-17.63-13.59-30.99-.16-.96-.32-1.94-.48-2.93-1.72-10.35-.74-20.49,.3-31.22,.44-4.52,.89-9.2,1.14-13.95,.22-4.29,.32-8.46,.42-12.5,.25-10.37,.47-19.33,2.78-21.65,.54-.54,1.06-.72,1.58-.57,1.25,.37,2.43,2.51,3.44,5.31,.08-.36,.15-.73,.24-1.08-.95-2.39-2.13-4.41-3.5-4.82Z"/><path class="d" d="M199.01,54.66c2.13-2.89,4.8-4.81,6.56-4.65,3.36,.3,4.71,8.99,4.96,17.12,.21,.03,.42,.05,.63,.09-.24-8.11-1.56-17.47-5.53-17.82-2-.18-4.83,1.79-7.11,4.9-1.35,1.84-4.64,7.16-4.49,14.87,.21-.1,.39-.22,.61-.32-.06-7.36,3.08-12.42,4.38-14.19Z"/><path class="d" d="M204.94,58.02c-.81,0-1.56,.98-2.05,1.85-.98,1.73-1.84,4.46-2,7.22,.21-.03,.42-.06,.64-.09,.16-2.58,.94-5.15,1.9-6.83,.66-1.16,1.21-1.57,1.48-1.53,.19,0,.33,.24,.41,.44,.79,1.83,1.27,4.89,1.51,7.71,.21,0,.41,.02,.61,.03-.24-2.9-.74-6.08-1.56-7.98-.28-.64-.67-.8-.95-.81Z"/><path class="d" d="M173.27,71.27c-.64,6.87-2.03,13.44-3.5,20.38-2.68,12.68-5.73,27.06-4.52,46.36l.18,2.85c1.74,27.87,2.78,44.7,11.23,52.79,6.96,6.68,18.84,13.9,29.89,13.9,4.33,0,8.54-1.11,12.27-3.81,10.85-7.84,14.02-30.16,10.52-47.92v3.64c2.44,16.88-.91,36.57-10.88,43.78-12.93,9.34-31.82-.89-41.36-10.04-8.27-7.93-9.31-24.66-11.04-52.39l-.18-2.85c-1.2-19.21,1.83-33.55,4.51-46.19,1.47-6.97,2.87-13.55,3.51-20.45,1.49-15.89,12.74-30.4,21.95-35.49-.48,.06-.97,.1-1.44,.17-9.13,5.74-19.67,19.87-21.12,35.26Z"/><path class="d" d="M176.97,149.2c.23,5.23,1.71,11.33,4.91,16.01v-1.1c-2.78-4.46-4.08-10.09-4.29-14.94-.41-9.36,.64-17.47,2.05-27.1,.44-3.02,.32-7.71,.19-12.69-.2-7.45-.42-15.9,1.63-16.61,.13-.04,.29-.05,.48-.02,0-.2,0-.41,.02-.61-.24-.03-.48-.03-.7,.05-2.47,.86-2.26,8.8-2.04,17.21,.13,4.95,.25,9.62-.18,12.58-1.42,9.66-2.47,17.8-2.06,27.21Z"/></g><path class="j" d="M242.83,170.47V89.94c0-20.56-16.67-37.23-37.23-37.23s-37.23,16.67-37.23,37.23v80.53c0,20.56,16.67,37.23,37.23,37.23s37.23-16.67,37.23-37.23Zm-13.5-2.93c0,14.7-8.25,24.75-23.72,24.75s-23.72-10.06-23.72-24.75v-8.47c0-5.86,8.66-15.12,11.75-21.91,.89-1.95,1.86-4.18,2.82-6.48h0s1.81-2.39,4.66-3.7c2.85-1.31,5.98-3.28,6.21-3.59,.23-.31,2.47-3.66,2.47-3.66l-.35-.62s-1.66,3.01-2.51,3.66c-.85,.66-2.08,.35-2.93,1.08-.85,.73-2.39,1.89-3.47,2.01-1.08,.12-2.01-.25-1.36-2.04h0c1.24-3.33,2.23-6.37,2.63-8.41,.93-4.78,2.78-14.04,2.78-14.04l-2.52,2.06s0,6.99-2.47,11.52c-2.47,4.53-4.42,7.07-4.83,9.3-.41,2.22-3.09,10.35-5.14,11.99-2.06,1.65-3.5,4.73-4.83,3.81-1.34-.93-2.91-1.95-2.91-6.38v-38.84c0-16.5,6.7-28.1,23.72-28.1s23.72,11.6,23.72,28.1v72.71Z"/><path class="i" d="M226.37,50.36c-.53,0-1.06-.11-1.57-.35-1.03-.48-2.06-.93-3.09-1.34-1.9-.76-2.82-2.91-2.07-4.81,.76-1.9,2.91-2.83,4.81-2.07,1.15,.46,2.32,.97,3.48,1.51,1.85,.87,2.65,3.07,1.79,4.92-.63,1.35-1.96,2.14-3.36,2.14Zm-47.78,1.64c9.44-6.04,20.96-8.3,32.42-6.36,2.02,.33,3.93-1.01,4.27-3.03,.34-2.02-1.02-3.93-3.03-4.27-13.28-2.25-26.65,.39-37.65,7.42-1.72,1.1-2.23,3.39-1.12,5.11,.71,1.11,1.9,1.71,3.12,1.71,.68,0,1.37-.19,1.99-.58Z"/><path class="i" d="M199.9,212.54c.5-.15,1.05-.19,1.6-.11,1.12,.17,2.24,.31,3.34,.41,2.04,.19,3.54,1.99,3.35,4.03-.19,2.04-1.99,3.54-4.03,3.35-1.24-.11-2.5-.27-3.76-.46-2.02-.3-3.42-2.19-3.11-4.21,.22-1.47,1.28-2.61,2.61-3Zm45.34-15.13c-7.34,8.47-17.74,13.91-29.29,15.3-2.03,.25-3.48,2.09-3.23,4.12,.25,2.03,2.09,3.48,4.12,3.23,13.37-1.61,25.45-7.94,34-17.8,1.34-1.54,1.17-3.88-.37-5.22-.99-.86-2.31-1.1-3.48-.75-.65,.19-1.26,.57-1.74,1.12Z"/><g><path class="h" d="M138.31,45.01c4.97-1.51,8.58,2.74,8.58,2.74,0,0-.65,5.54-5.62,7.04-4.96,1.51-12.36-1.59-12.36-1.59,0,0,4.43-6.69,9.4-8.19Z"/><path class="f" d="M138.31,45.01c-4.97,1.5-9.4,8.19-9.4,8.19l17.98-5.45s-3.62-4.24-8.58-2.74Z"/><path class="k" d="M130.7,50.86c-.05,.06-.1,.11-.14,.17l1.5,1.1-3.04,.92c-.06,.09-.1,.14-.1,.14,0,0,.07,.03,.16,.07l3.04-.92-.63,1.75c.07,.02,.14,.04,.21,.06l.69-1.89,3.76-1.14-1.36,3.75c.07,.01,.14,.03,.22,.04l1.41-3.87,3.76-1.14-1.92,5.3c.08,0,.16,0,.24,0l1.95-5.37,3.76-1.14-2.11,5.81c.1-.04,.19-.09,.28-.13l2.09-5.76,2.43-.74,.02-.12-.08-.09-2.43,.74-4.94-3.63c-.1,.02-.2,.03-.31,.05l4.99,3.66-3.76,1.14-4.61-3.38c-.07,.04-.13,.08-.2,.12l4.54,3.34-3.76,1.14-3.32-2.44c-.06,.05-.11,.1-.16,.15l3.22,2.36-3.76,1.14-1.62-1.19Z"/></g><g><path class="h" d="M156.02,30.31c-2.97,4.25-8.44,3.16-8.44,3.16,0,0-2.91-4.75,.06-9.01,2.97-4.25,10.7-6.4,10.7-6.4,0,0,.65,7.99-2.32,12.25Z"/><path class="f" d="M156.02,30.31c2.97-4.25,2.32-12.25,2.32-12.25l-10.76,15.4s5.47,1.1,8.44-3.16Z"/><path class="k" d="M158.38,21.01c0-.07,0-.15,0-.22l-1.86,.06,1.82-2.61c0-.1-.01-.17-.01-.17,0,0-.07,.02-.17,.05l-1.82,2.61-.58-1.77c-.07,.03-.14,.06-.2,.08l.63,1.91-2.25,3.22-1.25-3.79c-.07,.04-.13,.07-.2,.11l1.29,3.91-2.25,3.22-1.76-5.36c-.06,.05-.12,.1-.18,.15l1.79,5.43-2.25,3.22-1.94-5.87c-.05,.09-.09,.19-.14,.28l1.92,5.82-1.45,2.08c.03,.06,.06,.11,.06,.11,0,0,.05,0,.12,.02l1.46-2.08,6.13-.2c.07-.08,.14-.15,.21-.23l-6.18,.21,2.25-3.22,5.71-.19c.03-.07,.05-.14,.08-.22l-5.63,.19,2.25-3.22,4.12-.13c.01-.08,.02-.15,.03-.22l-3.99,.13,2.25-3.22,2.01-.06Z"/></g><g><path class="h" d="M209.16,116.35c-3.51,1.74-6.74-.97-6.74-.97,0,0-.21-4.2,3.3-5.95,3.51-1.74,9.41-.36,9.41-.36,0,0-2.46,5.53-5.97,7.27Z"/><path class="f" d="M209.16,116.35c3.51-1.74,5.97-7.27,5.97-7.27l-12.71,6.31s3.23,2.71,6.74,.97Z"/><path class="k" d="M214.09,111.04s.06-.1,.08-.14l-1.25-.63,2.15-1.07c.03-.07,.06-.12,.06-.12,0,0-.05-.01-.13-.03l-2.15,1.07,.25-1.38c-.05,0-.11-.01-.16-.02l-.27,1.49-2.66,1.32,.55-2.97c-.05,0-.11,0-.17,0l-.56,3.06-2.66,1.32,.77-4.19c-.06,0-.12,.02-.17,.03l-.78,4.24-2.66,1.32,.85-4.59c-.07,.04-.13,.09-.19,.13l-.84,4.55-1.72,.85v.09s.03,.03,.07,.06l1.72-.85,4.13,2.08c.08-.03,.15-.05,.22-.08l-4.17-2.1,2.66-1.32,3.85,1.94s.09-.08,.13-.12l-3.8-1.92,2.65-1.32,2.78,1.4s.07-.09,.1-.14l-2.69-1.36,2.66-1.32,1.35,.68Z"/></g><g><path class="h" d="M287.7,69.48c-4.11,3.16-9,.46-9,.46,0,0-1.34-5.41,2.77-8.57,4.12-3.16,12.13-2.87,12.13-2.87,0,0-1.79,7.82-5.91,10.98Z"/><path class="f" d="M287.7,69.48c4.12-3.16,5.91-10.98,5.91-10.98l-14.91,11.44s4.88,2.7,9-.46Z"/><path class="k" d="M292.76,61.32c.03-.07,.05-.14,.07-.21l-1.79-.5,2.52-1.94,.04-.17s-.07,0-.17,0l-2.52,1.93-.02-1.86c-.07,0-.15,.01-.22,.02l.02,2.01-3.12,2.39-.05-3.99c-.07,.01-.14,.03-.22,.04l.05,4.12-3.12,2.39-.06-5.64c-.07,.03-.15,.06-.22,.09l.07,5.71-3.12,2.39-.07-6.18c-.08,.07-.15,.15-.22,.22l.07,6.13-2.01,1.55c.01,.07,.02,.12,.02,.12,0,0,.04,.02,.11,.05l2.02-1.55,5.9,1.65c.09-.05,.18-.1,.27-.15l-5.95-1.67,3.11-2.39,5.5,1.54c.05-.06,.1-.12,.14-.19l-5.43-1.52,3.12-2.39,3.96,1.11c.04-.07,.06-.13,.1-.2l-3.84-1.08,3.12-2.39,1.93,.54Z"/></g><g><path class="h" d="M201.45,143.26c-5.19,.04-7.46-5.05-7.46-5.05,0,0,2.19-5.13,7.38-5.17,5.19-.04,11.41,5.02,11.41,5.02,0,0-6.14,5.16-11.33,5.2Z"/><path class="f" d="M201.45,143.26c5.19-.04,11.33-5.2,11.33-5.2l-18.79,.15s2.27,5.09,7.46,5.05Z"/><path class="k" d="M210.4,139.8c.06-.04,.13-.08,.19-.12l-1.13-1.48,3.18-.02c.08-.07,.13-.11,.13-.11,0,0-.05-.04-.14-.11l-3.18,.02,1.1-1.5c-.06-.04-.12-.08-.18-.12l-1.19,1.62-3.93,.03,2.37-3.22c-.07-.03-.13-.06-.2-.1l-2.44,3.32-3.93,.03,3.35-4.54c-.08-.02-.15-.04-.23-.06l-3.39,4.6-3.93,.03,3.67-4.98c-.11,.01-.21,.03-.31,.05l-3.64,4.93-2.54,.02c-.03,.07-.05,.11-.05,.11,0,0,.02,.04,.05,.11l2.54-.02,3.71,4.88c.1,.01,.2,.03,.31,.04l-3.75-4.92,3.93-.03,3.46,4.55c.07-.02,.15-.04,.22-.06l-3.41-4.49,3.93-.03,2.49,3.28c.07-.03,.13-.07,.2-.1l-2.42-3.18,3.93-.03,1.21,1.6Z"/></g><g><path class="h" d="M141.59,19.36c2.83,2.39,1.69,6.2,1.69,6.2,0,0-3.57,1.75-6.4-.63-2.83-2.39-3.84-8.02-3.84-8.02,0,0,5.72,.06,8.55,2.46Z"/><path class="f" d="M141.59,19.36c-2.83-2.39-8.55-2.46-8.55-2.46l10.24,8.66s1.14-3.81-1.69-6.2Z"/><path class="k" d="M135.14,17.07c-.05,0-.11-.01-.16-.02l-.08,1.32-1.73-1.47h-.13s.01,.05,.03,.12l1.73,1.47-1.29,.3s.03,.1,.04,.15l1.4-.32,2.14,1.81-2.78,.64s.04,.1,.06,.15l2.87-.66,2.14,1.81-3.92,.9s.06,.09,.1,.14l3.97-.91,2.14,1.81-4.3,.98c.06,.04,.13,.08,.19,.12l4.26-.98,1.38,1.17s.08-.04,.08-.04c0,0,0-.03,.02-.08l-1.38-1.17,.26-4.36c-.05-.06-.1-.11-.15-.17l-.26,4.4-2.14-1.81,.24-4.07s-.1-.05-.15-.07l-.24,4.02-2.14-1.81,.18-2.93c-.05-.02-.1-.02-.16-.04l-.17,2.85-2.14-1.81,.09-1.43Z"/></g><g><path class="h" d="M277.28,47.19c2,3.11-.2,6.42-.2,6.42,0,0-3.93,.63-5.93-2.48-2-3.11-1.33-8.8-1.33-8.8,0,0,5.46,1.73,7.46,4.85Z"/><path class="f" d="M277.28,47.19c-2-3.11-7.46-4.85-7.46-4.85l7.26,11.27s2.2-3.31,.2-6.42Z"/><path class="k" d="M271.77,43.11s-.1-.04-.15-.06l-.46,1.24-1.23-1.91c-.07-.02-.12-.04-.12-.04,0,0,0,.05-.01,.12l1.23,1.91-1.32-.09s0,.1,0,.16l1.43,.1,1.52,2.36-2.84-.2c0,.05,0,.1,.01,.16l2.93,.21,1.52,2.36-4.01-.29c.01,.05,.03,.11,.05,.16l4.06,.29,1.52,2.36-4.4-.32c.05,.06,.1,.11,.15,.17l4.36,.31,.98,1.52c.05,0,.09,0,.09,0,0,0,.02-.03,.04-.07l-.98-1.52,1.53-4.1c-.03-.07-.06-.13-.09-.2l-1.54,4.13-1.51-2.35,1.42-3.82s-.08-.07-.12-.11l-1.4,3.77-1.52-2.36,1.02-2.75s-.09-.05-.14-.08l-.99,2.67-1.52-2.36,.5-1.34Z"/></g><g><path class="h" d="M140.79,33.46c.58,2.93-2.06,4.75-2.06,4.75,0,0-3.13-.69-3.7-3.62-.58-2.93,1.62-6.97,1.62-6.97,0,0,3.57,2.91,4.14,5.84Z"/><path class="f" d="M140.79,33.46c-.57-2.92-4.14-5.84-4.14-5.84l2.08,10.59s2.63-1.82,2.06-4.75Z"/><path class="k" d="M137.89,28.78s-.06-.06-.09-.09l-.72,.79-.35-1.79s-.08-.06-.08-.06c0,0-.02,.03-.05,.09l.35,1.79-.96-.46s-.03,.08-.05,.12l1.04,.5,.44,2.21-2.06-.99s-.02,.08-.04,.12l2.13,1.03,.44,2.21-2.92-1.41s0,.09-.01,.14l2.96,1.42,.44,2.21-3.2-1.54c.02,.06,.04,.11,.06,.17l3.17,1.53,.28,1.43s.07,.02,.07,.02c0,0,.02-.02,.06-.04l-.28-1.43,2.36-2.61c0-.06,0-.12,0-.18l-2.38,2.64-.43-2.21,2.19-2.44s-.04-.08-.06-.12l-2.17,2.41-.44-2.21,1.58-1.75s-.05-.07-.08-.1l-1.54,1.71-.44-2.21,.78-.86Z"/></g><g><path class="h" d="M150.89,18.75c-2.16,2.06-5.11,.82-5.11,.82,0,0-1.1-3.01,1.06-5.07,2.16-2.06,6.75-2.38,6.75-2.38,0,0-.54,4.57-2.7,6.63Z"/><path class="f" d="M150.89,18.75c2.16-2.05,2.7-6.63,2.7-6.63l-7.81,7.45s2.96,1.24,5.11-.82Z"/><path class="k" d="M153.28,13.78s.02-.09,.03-.12l-1.05-.18,1.32-1.26c0-.06,.01-.1,.01-.1,0,0-.04,0-.1,0l-1.32,1.26-.13-1.06s-.08,.02-.12,.02l.14,1.14-1.63,1.56-.27-2.28s-.08,.02-.12,.03l.28,2.35-1.63,1.56-.38-3.21s-.08,.04-.12,.06l.39,3.26-1.63,1.56-.42-3.53s-.08,.09-.11,.14l.41,3.5-1.05,1.01s.02,.07,.02,.07c0,0,.03,0,.07,.02l1.06-1,3.47,.58c.05-.03,.1-.07,.15-.1l-3.5-.59,1.63-1.55,3.24,.54s.05-.07,.07-.11l-3.2-.54,1.63-1.56,2.33,.39s.03-.08,.05-.12l-2.26-.38,1.63-1.56,1.14,.19Z"/></g><g><path class="h" d="M287.58,45.06c-2.16,2.06-5.11,.82-5.11,.82,0,0-1.1-3.01,1.06-5.07,2.16-2.06,6.75-2.38,6.75-2.38,0,0-.54,4.57-2.7,6.63Z"/><path class="f" d="M287.58,45.06c2.16-2.05,2.7-6.63,2.7-6.63l-7.81,7.45s2.95,1.24,5.11-.82Z"/><path class="k" d="M289.97,40.09s.02-.08,.03-.12l-1.05-.18,1.32-1.26v-.1s-.03,0-.09,0l-1.32,1.26-.13-1.06s-.08,.02-.12,.02l.14,1.14-1.63,1.56-.27-2.28s-.08,.02-.12,.04l.28,2.35-1.63,1.56-.38-3.21s-.08,.04-.12,.06l.39,3.26-1.63,1.56-.42-3.53s-.08,.09-.11,.14l.42,3.5-1.05,1.01s.02,.07,.02,.07c0,0,.03,0,.07,.02l1.06-1,3.47,.58c.05-.04,.1-.07,.15-.1l-3.5-.59,1.63-1.55,3.24,.54s.05-.07,.07-.11l-3.2-.54,1.63-1.56,2.33,.39s.03-.08,.04-.12l-2.26-.38,1.63-1.56,1.14,.19Z"/></g><g><path class="h" d="M271.01,62.44c2.67,1.32,2.53,4.52,2.53,4.52,0,0-2.45,2.07-5.12,.75-2.67-1.32-4.56-5.52-4.56-5.52,0,0,4.48-1.07,7.15,.25Z"/><path class="f" d="M271.01,62.44c-2.67-1.32-7.15-.25-7.15-.25l9.68,4.77s.15-3.2-2.53-4.52Z"/><path class="k" d="M265.52,61.9s-.09,.01-.12,.01l.2,1.05-1.64-.81-.1,.02s.02,.04,.04,.09l1.64,.81-.95,.49s.04,.07,.06,.11l1.03-.52,2.02,1-2.04,1.04s.05,.07,.07,.1l2.11-1.07,2.03,1-2.89,1.47s.07,.06,.1,.09l2.92-1.49,2.02,1-3.17,1.6c.06,.02,.12,.04,.17,.06l3.14-1.59,1.31,.64s.06-.04,.06-.04c0,0,0-.03,0-.07l-1.31-.65-.65-3.46s-.09-.07-.15-.1l.65,3.49-2.02-1-.61-3.22s-.08-.02-.13-.03l.6,3.18-2.03-1-.43-2.32s-.09,0-.13,0l.42,2.26-2.03-1-.21-1.14Z"/></g><g><path class="h" d="M197.93,113.27c1.17,3.09-1.37,5.57-1.37,5.57,0,0-3.54-.18-4.71-3.27-1.17-3.09,.49-7.92,.49-7.92,0,0,4.43,2.53,5.6,5.62Z"/><path class="f" d="M197.93,113.27c-1.17-3.09-5.6-5.62-5.6-5.62l4.23,11.18s2.54-2.48,1.37-5.57Z"/><path class="k" d="M193.89,108.68s-.08-.06-.11-.08l-.64,1-.71-1.89-.1-.06s-.01,.04-.03,.1l.71,1.89-1.14-.33s-.02,.09-.03,.13l1.23,.35,.88,2.34-2.44-.7s-.01,.09-.02,.14l2.52,.73,.88,2.34-3.44-1c0,.05,0,.1,.01,.15l3.49,1.01,.88,2.34-3.78-1.1c.03,.06,.07,.12,.1,.18l3.75,1.09,.57,1.51s.08,0,.08,0c0,0,.02-.02,.05-.06l-.57-1.51,2.09-3.29c-.02-.07-.03-.12-.04-.2l-2.12,3.32-.88-2.34,1.95-3.07s-.05-.08-.09-.12l-1.92,3.03-.89-2.34,1.41-2.21s-.07-.06-.1-.1l-1.37,2.15-.89-2.34,.69-1.08Z"/></g><g><path class="h" d="M265.61,46.67c2.32,1.14,2.19,3.92,2.19,3.92,0,0-2.12,1.79-4.44,.65-2.32-1.14-3.95-4.79-3.95-4.79,0,0,3.89-.93,6.2,.22Z"/><path class="f" d="M265.61,46.67c-2.32-1.14-6.2-.22-6.2-.22l8.4,4.14s.13-2.78-2.19-3.92Z"/><path class="k" d="M260.84,46.21s-.07,0-.11,.01l.17,.91-1.42-.7c-.05,.01-.09,.02-.09,.02l.04,.08,1.42,.7-.83,.42s.04,.06,.06,.09l.89-.46,1.75,.86-1.77,.9s.04,.06,.06,.09l1.83-.93,1.76,.86-2.5,1.27s.06,.05,.09,.08l2.54-1.29,1.76,.87-2.75,1.39c.05,.02,.1,.03,.15,.05l2.72-1.38,1.13,.56,.05-.04s0-.03,0-.06l-1.13-.56-.56-3s-.08-.06-.13-.09l.57,3.03-1.75-.86-.53-2.8s-.07-.02-.11-.02l.52,2.76-1.76-.86-.38-2.01s-.07,0-.11,0l.37,1.96-1.76-.86-.18-.98Z"/></g><g><path class="h" d="M211.15,126.22c-2.49-.69-2.89-3.44-2.89-3.44,0,0,1.75-2.16,4.24-1.47,2.49,.69,4.78,3.96,4.78,3.96,0,0-3.64,1.63-6.14,.94Z"/><path class="f" d="M211.15,126.22c2.49,.69,6.14-.94,6.14-.94l-9.02-2.5s.39,2.75,2.89,3.44Z"/><path class="k" d="M215.91,125.79s.07-.02,.1-.03l-.33-.86,1.52,.42s.08-.04,.08-.04l-.05-.07-1.53-.42,.73-.57s-.05-.05-.07-.08l-.79,.61-1.88-.52,1.57-1.21s-.05-.05-.08-.08l-1.62,1.25-1.89-.52,2.22-1.72s-.07-.04-.1-.06l-2.25,1.74-1.89-.52,2.44-1.88c-.05-.01-.11-.01-.15-.02l-2.42,1.87-1.22-.34s-.04,.04-.04,.04c0,0,0,.02,.01,.06l1.22,.34,1.11,2.84s.09,.04,.14,.06l-1.12-2.87,1.88,.52,1.04,2.65s.07,0,.12,0l-1.03-2.62,1.89,.52,.75,1.91s.07-.02,.11-.02l-.73-1.85,1.89,.52,.36,.93Z"/></g><g><path class="h" d="M200.49,103c1.72,1.93,.55,4.46,.55,4.46,0,0-2.64,.86-4.36-1.08-1.71-1.93-1.85-5.92-1.85-5.92,0,0,3.95,.61,5.66,2.54Z"/><path class="f" d="M200.49,103c-1.71-1.93-5.66-2.54-5.66-2.54l6.21,7s1.17-2.52-.55-4.46Z"/><path class="k" d="M196.26,100.78s-.07-.02-.1-.03l-.19,.91-1.05-1.19c-.05,0-.09-.01-.09-.01,0,0,0,.03,0,.08l1.05,1.19-.92,.08s.01,.07,.02,.11l1-.09,1.3,1.46-1.98,.16s.02,.07,.03,.1l2.05-.17,1.3,1.46-2.8,.23s.04,.07,.05,.11l2.84-.24,1.3,1.46-3.07,.25s.08,.07,.12,.1l3.04-.25,.84,.94s.06-.01,.06-.01c0,0,0-.02,.02-.06l-.84-.95,.61-2.99s-.05-.08-.09-.13l-.62,3.02-1.3-1.46,.57-2.79s-.06-.04-.09-.06l-.56,2.75-1.3-1.46,.41-2.01s-.07-.03-.1-.04l-.4,1.95-1.3-1.46,.2-.98Z"/></g><g><path class="h" d="M286.81,57.18c-3.41,1.9-6.75-.65-6.75-.65,0,0-.4-4.17,3.01-6.07,3.41-1.9,9.34-.79,9.34-.79,0,0-2.19,5.62-5.6,7.51Z"/><path class="f" d="M286.81,57.18c3.41-1.89,5.6-7.51,5.6-7.51l-12.35,6.86s3.33,2.54,6.75,.65Z"/><path class="k" d="M291.47,51.67s.05-.1,.08-.14l-1.27-.57,2.09-1.16c.03-.07,.05-.12,.05-.12,0,0-.05,0-.13-.02l-2.09,1.16,.19-1.39c-.05,0-.11,0-.16-.01l-.2,1.5-2.58,1.44,.4-2.97c-.05,0-.11,0-.16,0l-.42,3.07-2.58,1.44,.58-4.2c-.06,.01-.11,.03-.17,.04l-.58,4.25-2.58,1.44,.63-4.6c-.07,.05-.13,.09-.19,.14l-.62,4.56-1.67,.93c0,.05,0,.09,0,.09l.08,.05,1.67-.93,4.2,1.88c.08-.03,.14-.05,.22-.08l-4.24-1.9,2.58-1.43,3.92,1.75s.09-.08,.13-.12l-3.87-1.73,2.58-1.44,2.82,1.27s.06-.09,.1-.14l-2.74-1.23,2.58-1.44,1.38,.62Z"/></g></g><g><path class="g" d="M408.02,106.72c2.41-1.11,5.04-2.76,5.23-3.02,.2-.26,2.08-3.09,2.08-3.09l-.29-.52s-1.4,2.54-2.11,3.09c-.71,.55-1.75,.29-2.47,.91-.71,.62-2.01,1.59-2.93,1.69-.91,.1-1.69-.21-1.14-1.72h0c1.05-2.81,1.88-5.37,2.21-7.09,.78-4.03,2.34-11.83,2.34-11.83l-2.12,1.73s0,5.89-2.08,9.71c-2.08,3.81-3.73,5.96-4.07,7.83s-2.6,8.73-4.33,10.11c-1.73,1.39-2.95,3.99-4.08,3.21-.71-.49-1.49-1.02-1.98-2.27v-.77c0-9.28-8.25-16.24-17.79-16.24-10.06,0-17.79,6.96-17.79,16.24v39.45h-32.23c8.81-20.34,16.63-38.1,24.62-56.31,3.59-6.02,13.57-13.13,19.78-16.05,4.17-1.96,10.48-6.37,15.49-10.63,.02,0,6.45-3.18,11.69-3.41,5.25-.23,11.65-1.77,12.88-2.62,1.23-.85,4.47-2.62,4.47-2.62v-1.16s-3.08,2.39-5.32,3.16c-2.24,.77-6.63,1.56-9.87,1.74-3.24,.19-2.78-1.05-4.32-1.05-1.43,0-3.37,.17-2.55-1.14,3.64-5.07,14.5-14.2,14.5-14.2h-1.91s-11.05,9.55-13.51,11.87c-2.45,2.32-5.12,2.39-6.34,4.43-.98,1.64-2.37,3.27-4.1,4.8-1.41,1.02-2.23-.27-2.43-1.37-.22-1.23,.84-4.71,1.53-6.02,.69-1.31,2.7-3.7,2.7-3.7h-1.08s-1.7,1.62-2.39,2.7c-.69,1.08-2.08,4.55-2.16,6.87-.08,2.31-2.84,5.36-2.84,5.36-2.97,1.23-6.27,2.38-7.98,2.89-2.87,.85-6.21-.91-5.25-4.96,2.09-4.8,4.22-9.69,6.41-14.76,1.03-2.32,1.03-4.12,1.03-5.67,0-9.02-9.02-16.76-17.79-16.76-4.49,0-8.96,1.74-12.21,4.74-.3-1.16-.45-2.46-.44-3.75,.04-4.6-.87-13.27-.87-18.04,0-4.77,2.42-13.71,2.42-13.71l-1.06-.82s-2.84,10.34-3.49,13.84c-.35,1.91-.1,5.64-.14,10.95-.08-.01-.14,.04-.14,.21-.01,.9-1,1.28-2.06,.11-1.06-1.17-3.02-3.49-3.19-4.33-.17-.84-1.42-1.47-2.62-2.36-1.21-.89-3.19-2.71-3.19-2.71l-.7-.18s2.73,3.07,4.61,5.09c1.88,2.01,3.83,5.42,4.94,6.49,1.1,1.07,2.18,2.68,2.07,5.56-.18,2.62-.45,5.45-.89,8.52-.24,1.68-.55,3.27-.89,4.78l-24.53,56.6c-2.65,6.11-5.09-1.14-5.5-3.92-.17-1.18-.5-2.45-.92-3.73,0-.03,0-.05,0-.08-.26-2.47,.92-3.5,1.26-5.14,.33-1.65,1.31-4.06,1.57-6.12,.26-2.06,2.16-5.35,2.16-5.35l-.39-1.13s-1.82,4.27-2.49,6.12c-.67,1.85-1.31,4.21-1.95,5.96-.96,2.63-2.47,.55-2.61,.35-1.45-2.91-1.45-9.67-1.45-13.42s.21-13.06,.21-13.06l-1.29,2.98s.06,16.04,0,20.67c-.06,4.63,2.22,8.33,3.45,15.84,1.23,7.5-1.84,22.62-3.45,26.35l-11.68,26.94c-1.55,3.35-2.58,7.99-2.58,9.02,0,9.28,7.48,17.53,18.31,17.53h56.72v16.04c-.62,.27-1.54-.27-2-1.25-.79-1.68-1.99-1.9-3.49-4.25-1.51-2.36-2.38-7.96-2.38-7.96l-1.13-.81s.96,5.08,1.69,8.02c.1,.4,.24,.85,.4,1.32h0c.04,.9-1.91-.19-2.56-.64s-1.75-.47-2.6-1.15c-.86-.68-1.33-1.5-1.33-1.5l-.21,.15,.91,1.47s1.89,1.48,4.05,2.46c2.17,.98,3.46,3.21,3.46,3.21h0c.98,1.91,2.12,3.7,3.13,4.7,.71,.7,1.45,1.62,2.13,2.64,.68,8.63,8.14,14.97,17.72,14.97,10.06,0,17.79-6.96,17.79-16.24v-21.14h3.35c9.8,0,17.27-7.22,17.27-16.24,0-8.51-7.48-15.99-17.27-15.99h-3.35v-22.77c1.63-4.84,7.23-11.2,9.44-16.06,.75-1.64,1.57-3.53,2.38-5.46h0s1.52-2.01,3.93-3.12Z"/><g><path class="d" d="M319.21,83.42c3.96-2.7,8.45-5.76,14.06-11.29,10.77-10.6,16.23-25.41,18.17-36.51-.21-.02-.41-.02-.62-.04-1.92,10.98-7.33,25.62-17.98,36.11-5.57,5.49-10.04,8.53-13.98,11.22-.63,.43-1.24,.85-1.84,1.26l-.47,1.08c.85-.61,1.74-1.21,2.65-1.83Z"/><path class="d" d="M337.87,60.51c1.08-2.64,2.46-5.09,3.94-7.69,2.85-5.03,5.77-10.2,6.69-17.23-.21,.02-.42,.03-.63,.05-.93,6.86-3.8,11.94-6.6,16.88-1.48,2.61-2.88,5.08-3.97,7.76-2.35,5.77-9.41,9.5-15.24,12.27l-.37,.86c6.03-2.84,13.66-6.71,16.18-12.9Z"/><path class="d" d="M325.42,64.8l-.37,.85c3.3-1.51,6.78-3.64,7.31-4.83,.15-.34,.06-.55-.05-.66-.37-.38-1.23-.08-3.8,.97-.59,.24-1.2,.48-1.82,.72l-.34,.79c.81-.3,1.62-.63,2.39-.94,1.14-.46,2.52-1.03,3.03-1.08-.49,.93-3.38,2.76-6.35,4.18Z"/><path class="d" d="M366.87,166.89c.72-1.69,1.15-3.56,1.53-5.21,.53-2.31,.99-4.31,2.02-4.86,.4-.21,.89-.2,1.51,.03,.76,.29,1.52,.66,2.33,1.05,3.16,1.53,6.74,3.26,11.71,.62,2.94-1.56,6.45-3.28,9.89-4.37-.08,0-.15-.01-.22-.01h-1.64c-2.93,1.08-5.82,2.51-8.32,3.84-4.69,2.49-7.98,.91-11.15-.63-.82-.4-1.59-.77-2.38-1.07-.79-.3-1.45-.3-2.02,0-1.28,.68-1.76,2.81-2.33,5.27-.37,1.62-.8,3.46-1.5,5.1-.81,1.9-2.14,3.59-3.43,5.23-2.15,2.74-4.19,5.32-3.79,8.69,.27,2.31-.84,6.45-2.38,10.7v1.8c1.87-4.84,3.32-9.84,3-12.57-.37-3.11,1.59-5.6,3.67-8.23,1.31-1.67,2.67-3.39,3.51-5.37Z"/><path class="d" d="M328.04,59.95c3.02-1.39,4.48-4,5.45-5.72,.41-.74,.84-1.5,1.1-1.54,.05,0,.12,.03,.21,.11,1.31,1.21,.69,5.04-.59,8.2-.94,2.32-6.15,5.8-10.46,7.66l-.34,.79c4.45-1.8,10.26-5.48,11.37-8.22,1.36-3.36,2.03-7.4,.44-8.88-.23-.21-.48-.3-.72-.26-.56,.09-.95,.79-1.55,1.85-.93,1.65-2.33,4.15-5.17,5.46h-.03l-.36,.83c.21-.09,.42-.17,.64-.27Z"/><path class="d" d="M369.67,117.01c1.76,10.86,5.88,25.96,9.04,26.07h.05c.38,0,.74-.16,1.07-.46,1.74-1.64,2.75-8.09,3-19.17,.21-8.97,1.81-15.08,5.14-19.37-.14-.15-.3-.29-.44-.44-3.44,4.4-5.1,10.64-5.31,19.79-.31,13.59-1.7,17.69-2.81,18.74-.22,.21-.45,.29-.68,.3-2.23-.08-6.33-12.5-8.45-25.56-1.6-9.85,3.46-15.51,9.13-17.83-.32-.08-.65-.16-.98-.22-5.82,2.75-10.26,8.9-8.75,18.15Z"/><path class="d" d="M373.78,109.87c0,3.6,.85,21.82,2.53,22.79,.08,.05,.17,.07,.25,.07s.17-.02,.25-.07c.9-.51,1.09-2.93,1.42-7.9,.22-3.31,.48-7.43,1.15-11.34,1.11-6.47,3.22-9.38,6.07-11.51-.18-.13-.36-.25-.55-.37-2.88,2.2-5.01,5.21-6.13,11.78-.67,3.94-.94,8.08-1.16,11.4-.23,3.5-.44,6.82-1.04,7.36-1.07-1.18-2.17-15.97-2.17-22.21,0-4.25,3.43-6.14,7.07-8.13,.64-.35,1.29-.72,1.93-1.09-.21-.11-.42-.23-.64-.34-.53,.3-1.07,.6-1.59,.89-3.63,1.99-7.39,4.05-7.39,8.67Z"/><path class="d" d="M313.39,103.12c4.45-3.44,13.83-6.29,17.22-6.52,3.96-.27,7.58,2.05,8.52,5.54,.73,2.7,2.42,6.57,3.89,9.51,.11-.24,.21-.49,.32-.73-1.4-2.84-2.93-6.42-3.62-8.94-1.02-3.77-4.86-6.3-9.16-5.99-3.45,.24-13.01,3.14-17.55,6.65-2.31,1.79-1.55,4.36-.66,7.33,.97,3.27,2.07,6.97-.24,10.96-1.94,3.35-5.36,5.6-9.33,8.21-2.35,1.55-4.97,3.27-7.62,5.47l-.54,1.25c2.89-2.51,5.79-4.42,8.5-6.21,4.03-2.65,7.51-4.94,9.52-8.42,2.45-4.23,1.25-8.23,.3-11.45-.86-2.87-1.53-5.14,.45-6.66Z"/><path class="d" d="M327.05,119.33c-4.43-2.95-8.62-5.74-9.02-9.09-.22-1.87,.45-3.47,2-4.77,3.95-3.3,11.99-3.58,14.47-2.82,2.69,.82,4.43,6.51,5.7,10.67,.32,1.04,.6,1.96,.87,2.73,.12-.28,.25-.56,.37-.84-.2-.62-.42-1.31-.65-2.08-1.39-4.53-3.11-10.16-6.11-11.08-2.58-.79-10.94-.5-15.04,2.94-1.72,1.44-2.47,3.22-2.22,5.31,.43,3.63,4.73,6.5,9.29,9.53,3.56,2.37,7.18,4.79,9.34,7.7,.09-.21,.18-.41,.27-.62-2.28-2.94-5.9-5.36-9.26-7.59Z"/><path class="d" d="M317.39,151.22c-1.72,6.14-3.87,13.78,1.21,18.73,3.95,3.85,10.75,5.14,17.02,5.13,3.42,0,6.69-.38,9.23-.94,6.36-1.39,19.66-7.29,20.2-16.64,.27-4.73-.29-11.62-.89-18.9-.55-6.73-1.12-13.68-1.17-20.1-.01-1.95-.09-3.78-.17-5.54-.19-4.48-.34-8.2,.6-11.14-.28,.2-.54,.4-.81,.61-.72,2.92-.58,6.47-.41,10.55,.07,1.76,.15,3.59,.16,5.52,.05,6.44,.62,13.41,1.17,20.14,.59,7.27,1.16,14.13,.89,18.82-.51,8.91-13.75,14.77-19.71,16.07-7.08,1.55-19.76,1.75-25.69-4.03-4.81-4.69-2.72-12.14-1.05-18.12,.45-1.59,.87-3.09,1.13-4.43,.53-2.68,.23-5.65-.05-8.52-.4-4.03-.75-7.51,1.39-8.75,.88-.51,2-.54,3.32-.1,2.96,.99,6.35,4.22,8.26,7.17,.1-.23,.2-.45,.29-.67-1.99-2.94-5.3-6.06-8.35-7.08-1.5-.5-2.78-.45-3.82,.15-2.49,1.44-2.12,5.11-1.7,9.35,.28,2.83,.58,5.75,.06,8.34-.26,1.32-.68,2.81-1.12,4.38Z"/><path class="d" d="M371.51,186.55c3.08-6.97,6.26-14.17,12.29-17.48,6.26-3.43,16.45-5.75,23.82-3.55,2.07,.62,3.79,1.55,5.15,2.78-.04-.32-.09-.63-.15-.95-1.33-1.05-2.94-1.87-4.82-2.43-7.88-2.36-18.12,.22-24.29,3.6-6.22,3.41-9.44,10.71-12.56,17.77-1.76,3.98-3.41,7.73-5.54,10.7-3.72,5.19-5.49,12.52-6.2,19.01,.17,.26,.36,.5,.54,.75,.66-6.57,2.38-14.13,6.16-19.41,2.17-3.02,3.84-6.81,5.61-10.81Z"/><path class="d" d="M388.49,182.6c-7.17,2.68-6.77,11.43-6.27,22.52,.37,8.09-2.65,14.52-5.59,18.51,.29-.03,.57-.07,.84-.11,2.9-4.12,5.72-10.51,5.36-18.43-.49-10.83-.88-19.39,5.87-21.91,3.17-1.19,12.89-4.28,17.1,.14,.17-.12,.34-.24,.51-.36-4.43-4.79-14.53-1.59-17.83-.36Z"/><path class="d" d="M338.37,39.56c-1.87,5.05-2.58,9.98-.54,11.23,.17,.11,.36,.16,.55,.16,.15,0,.29-.03,.44-.1,2.03-.89,4.16-8.81,5.43-14.44-.23,.07-.46,.15-.69,.23-1.53,6.68-3.45,12.97-4.99,13.64-.15,.07-.28,.06-.42-.03-1.8-1.1-.87-6.31,1.16-11.41-.32,.22-.63,.46-.94,.71Z"/><path class="d" d="M397.62,171.78c-11.47,1-17.86,7.35-22.79,22.63-2.39,7.41-3.2,14.39-3.84,20-.4,3.43-.74,6.39-1.33,8.76,.2,.05,.4,.08,.6,.13,.6-2.41,.95-5.37,1.34-8.81,.64-5.58,1.44-12.53,3.82-19.88,4.91-15.2,10.94-21.22,22.26-22.21,7.3-.63,11.31,2.51,13.37,5.15,.11-.2,.21-.4,.3-.6-2.21-2.73-6.36-5.82-13.72-5.16Z"/><path class="d" d="M392.28,192.87c-1.47,.62-2.74,1.56-3.79,2.78-2.63,3.07-3.55,7.64-2.67,13.2,.55,3.45,1.37,6.11,2.03,8.25,.11,.35,.21,.68,.31,1,.17-.18,.32-.37,.48-.56-.06-.21-.13-.41-.19-.63-.65-2.12-1.47-4.75-2.01-8.16-.85-5.38,.02-9.77,2.53-12.71,.92-1.08,2.04-1.91,3.32-2.49v-.69Z"/><path class="d" d="M330.68,52.66l-.59,1.36c1.93-1.6,3.84-3.7,4.5-6.09,.53-1.93,.66-3.35,.78-4.6,.17-1.86,.31-3.39,1.77-5.76-.02-.35-.06-.69-.06-1.04-1.95,2.9-2.13,4.61-2.33,6.74-.11,1.23-.24,2.62-.76,4.49-.5,1.83-1.83,3.5-3.31,4.89Z"/><path class="d" d="M308.27,182.54c-6.56-2.52-12.22-4.7-12.76-9.86-.51-4.86,1.85-12.12,3.74-17.96,1.64-5.07,2.83-8.73,2.08-10.03-.29-.5-.72-.79-1.24-.82-1.72-.12-4.5,2.43-8.74,7.98-1.87,2.45-4,4.96-6.84,7.32l-.28,.64c-.09,.19-.17,.38-.26,.58,3.36-2.6,5.77-5.41,7.87-8.16,3.99-5.23,6.79-7.84,8.2-7.74,.32,.02,.55,.18,.74,.51,.62,1.07-.72,5.18-2.13,9.53-1.91,5.89-4.29,13.23-3.77,18.22,.58,5.54,6.41,7.78,13.15,10.38,2.47,.95,5.13,1.98,7.72,3.25h1.37c-2.95-1.54-6.03-2.74-8.87-3.83Z"/><path class="d" d="M290.57,170.29c.62-3.88-.54-6.9-2-7.88-.75-.5-1.59-.52-2.37-.04-.99,.61-1.36,2.36-1.82,4.59-.42,2.01-.92,4.42-2.02,6.66,.08,.28,.17,.55,.27,.82,1.33-2.45,1.9-5.15,2.36-7.36,.42-2,.78-3.72,1.54-4.19,.58-.35,1.16-.34,1.71,.03,1.27,.85,2.31,3.69,1.74,7.27-.72,4.49-.57,8.79,2.24,14.58,.28,.12,.57,.24,.87,.35-3.03-5.96-3.22-10.3-2.5-14.83Z"/><path class="d" d="M326.19,154.13c-.1,.45-.12,.93-.04,1.44,.65,4.21,7.14,8.7,12.85,8.91,.2,0,.4,.01,.59,.01,2.6,0,4.43-.66,5.59-2.01,1.65-1.93,1.62-5.03,1.14-8.34h-.62c.48,3.2,.53,6.17-.98,7.94-1.11,1.3-2.96,1.88-5.69,1.79-5.84-.21-11.72-4.87-12.27-8.39-.07-.48-.04-.93,.07-1.34h-.64Z"/><path class="d" d="M342.05,75.89c3.58-5.44,5.94-13.34,5.22-14.67-.14-.27-.44-.37-.73-.22-1.4,.69-3.6,3.93-5.93,7.37l-.41,.6c-3.7,5.44-9.38,9.3-13.14,11.84-2.36,1.6-3.41,2.34-3.51,2.95-.03,.16,0,.31,.1,.43,.19,.25,.58,.37,1.26,.37,3.32,0,13.44-3.04,17.15-8.67Zm-17.89,7.96c.06-.37,1.68-1.47,3.25-2.53,3.57-2.42,9.53-6.46,13.3-12.01l.41-.6c2.15-3.17,4.38-6.44,5.64-7.13,.36,1-1.47,8.27-5.23,13.97-3.44,5.22-13.24,8.39-16.63,8.39-.54,0-.71-.09-.74-.09h0Z"/><path class="d" d="M350.95,55.43c-.04,.5-.08,1.05-.12,1.63-.49,6.94-1.31,18.55-10.65,25.19-3.97,2.82-8.45,3.98-13.19,5.2-4.65,1.2-9.41,2.44-13.72,5.37l-.47,1.1c4.46-3.3,9.46-4.6,14.35-5.87,4.58-1.18,9.32-2.41,13.39-5.29,9.59-6.81,10.45-19.07,10.91-25.65,.04-.58,.08-1.13,.12-1.62,.45-5.47,1.38-12.99,4.24-18.75-.19-.08-.39-.14-.58-.21-2.88,5.85-3.82,13.41-4.27,18.91Z"/><path class="d" d="M298.04,124.88c1.05-1.52,2.36-3.09,5.52-6.47,4.25-4.55,3.21-7.14,2.29-9.43-.03-.08-.06-.16-.1-.24-.2,.12-.4,.17-.6,.16,.04,.1,.08,.21,.12,.31,.89,2.22,1.81,4.52-2.17,8.78-2.47,2.65-3.82,4.19-4.8,5.47-.09,.48-.17,.96-.27,1.42Z"/><path class="d" d="M360.53,39.38c-.16-.13-.34-.24-.5-.35-4.17,5.71-4.89,14.87-5.37,21.14-.31,4.05,1.29,7.91,2.7,11.31,1.44,3.48,2.69,6.49,1.75,8.97l.58,.22c1.03-2.71-.26-5.82-1.75-9.42-1.38-3.34-2.95-7.12-2.65-11.03,.48-6.2,1.19-15.27,5.26-20.84Z"/><path class="d" d="M354.95,201.58c-.51,1.07-.98,2.16-1.41,3.25,.15,.2,.29,.39,.44,.58,.44-1.12,.91-2.24,1.42-3.34-.16-.13-.31-.3-.45-.49Z"/><path class="d" d="M364.29,43.15c-3.85,6.24-6.49,17.73-2.7,26.09,.11-.27,.23-.53,.35-.79-3.23-7.94-.78-18.75,2.75-24.73-.13-.19-.25-.38-.39-.57Z"/><path class="d" d="M318.97,180.83c-3.79-.05-12.95-.57-16.26-4.27-.88-.98-1.26-2.13-1.13-3.41,.24-2.48,1.3-5.7,2.41-9.11,1.7-5.2,3.64-11.09,3.45-16.44-.29-8.36-1.19-12.2-3.09-13.23-.8-.43-1.75-.32-2.83,.33-1.58,.95-3.49,3.12-5.91,5.87-1.71,1.94-3.61,4.09-5.7,6.16l-.66,1.52c2.55-2.41,4.81-4.98,6.82-7.27,2.29-2.6,4.27-4.85,5.77-5.75,.89-.54,1.62-.64,2.22-.31,2.1,1.14,2.58,7.39,2.77,12.71,.18,5.24-1.73,11.08-3.42,16.23-1.13,3.44-2.19,6.69-2.44,9.24-.14,1.46,.29,2.77,1.29,3.88,3.47,3.88,12.84,4.42,16.71,4.48,5.34,.07,12.06,2.04,17.45,4.91h1.29c-5.64-3.25-12.86-5.45-18.74-5.53Z"/><path class="d" d="M353.77,199.82c-.15-.16-.3-.31-.47-.47-.5,1.04-.97,1.99-1.42,2.81,.12,.22,.24,.43,.36,.64,.47-.86,.99-1.86,1.53-2.98Z"/><path class="d" d="M330.46,178.78c-6.02-.76-11.7-1.47-14.73-3.25-6.86-4.03-5.95-11.58-5.07-18.89,.3-2.51,.62-5.1,.59-7.46l-.02-1.23c-.12-8.99-.27-21.3,6.59-24.85,1.86-.96,3.93-1.07,6.15-.32,4.21,1.42,8.16,5.63,10.26,8.9,.1-.23,.2-.45,.29-.68-2.21-3.31-6.16-7.4-10.36-8.81-2.38-.8-4.61-.68-6.63,.36-7.21,3.72-7.04,16.26-6.93,25.41l.02,1.23c.03,2.32-.27,4.78-.59,7.38-.91,7.5-1.84,15.26,5.37,19.49,3.14,1.84,8.89,2.57,14.97,3.33,8.57,1.08,18.22,2.31,21.71,6.97h.77c-3.43-5.19-13.5-6.46-22.4-7.59Z"/><path class="d" d="M350.6,154.33c1.44,4.47,2.69,8.32-2.12,12.91-2.42,2.31-7.01,3.14-12.59,2.29-6.7-1.03-13.29-4.25-15-7.35-2.96-5.33,.43-11.18,2.9-15.46l.35-.6c1.45-2.52,.56-5.09-.16-7.16-.52-1.49-.96-2.78-.42-3.63,.18-.29,.41-.4,.74-.35,1.4,.21,3.8,3.2,5.42,7.09,.11-.25,.22-.51,.33-.76-1.64-3.66-4.01-6.69-5.67-6.94-.56-.08-1.03,.14-1.35,.64-.7,1.1-.21,2.52,.36,4.16,.71,2.05,1.51,4.37,.2,6.65l-.35,.6c-2.4,4.15-6.03,10.43-2.9,16.07,1.83,3.3,8.47,6.59,15.45,7.66,1.16,.18,2.65,.34,4.25,.34,3.07,0,6.55-.59,8.86-2.79,5.09-4.85,3.73-9.07,2.28-13.54h-.65c.02,.06,.04,.12,.06,.19Z"/><path class="d" d="M330.68,115.56c-1.95-.9-3.8-1.74-5.02-2.93-1.03-1-1.33-1.92-.91-2.74,.81-1.57,4.2-2.53,7.12-2,2.5,.45,5.1,4.33,7.74,11.53,.12-.27,.24-.55,.36-.82-1.36-3.66-4.27-10.64-7.99-11.31-2.85-.51-6.74,.32-7.78,2.33-.39,.75-.52,1.96,1.03,3.47,1.3,1.26,3.19,2.13,5.19,3.05,2.95,1.35,6.2,2.85,8.04,5.91,.1-.23,.2-.47,.31-.7-1.95-2.95-5.17-4.43-8.09-5.77Z"/><path class="d" d="M333,154.13c-.15,.4-.22,.78-.23,1.11-.07,1.64,1,3.38,2.87,4.65,.78,.53,1.47,.72,2.05,.72,.5,0,.92-.14,1.24-.31,1.52-.79,2.54-3.05,2.86-6.18h-.62c-.3,2.85-1.21,4.95-2.52,5.63-.79,.42-1.69,.29-2.66-.38-1.69-1.15-2.66-2.69-2.6-4.12,.02-.4,.14-.78,.31-1.14h-.69Z"/><path class="d" d="M339.52,93.95c-.48-1.92-1.33-3.15-2.61-3.77-1.95-.93-4.86-.41-9.44,1.71-1.79,.83-3.86,1.62-6.06,2.47-3.7,1.43-7.71,2.97-10.94,4.9l-.43,.99c3.29-2.12,7.62-3.79,11.59-5.32,2.21-.85,4.29-1.65,6.1-2.49,4.4-2.03,7.15-2.56,8.92-1.71,1.1,.53,1.84,1.62,2.28,3.36l.04,.14c1.09,4.36,2.79,11.13,5.24,14.71,.1-.22,.2-.44,.29-.67-2.29-3.6-3.95-10.27-4.93-14.2l-.04-.14Z"/><path class="d" d="M357.83,108.82c-.66,6.92-.05,15.65,.38,21.76,.22,3.14,.4,5.62,.35,6.94-.09,2.47,.23,5.4,.55,8.22,.4,3.54,.77,6.88,.38,9.33-.17,1.09-.5,1.7-.91,1.73-.01,0-.02,0-.04,0-.65,0-1.61-1.14-2.4-2.67h-.69c.84,1.72,2.02,3.29,3.09,3.29,.02,0,.05,0,.07,0,.75-.05,1.25-.81,1.48-2.25,.4-2.53,.02-5.91-.37-9.49-.31-2.8-.64-5.71-.55-8.13,.05-1.35-.12-3.85-.35-7.01-.47-6.63-1.15-16.38-.19-23.43-.31,.55-.57,1.12-.81,1.71Z"/><path class="d" d="M365.45,114.62c.65,7.62,2.73,14.23,4.57,20.07,1.08,3.42,2.1,6.64,2.63,9.53,1.19,6.43,2.76,9.89,4.92,10.91,.44,.21,.9,.31,1.38,.31,.71,0,1.47-.22,2.27-.67,4.77-2.66,6.49-13.5,5.71-22.82-.61-7.29,.81-16.25,4.35-22.58-.09-.24-.19-.48-.29-.71-3.79,6.48-5.31,15.81-4.68,23.35,.89,10.64-1.38,19.99-5.4,22.23-1.17,.66-2.19,.77-3.09,.34-1.94-.91-3.44-4.34-4.58-10.46-.54-2.93-1.57-6.17-2.65-9.61-1.83-5.8-3.91-12.38-4.55-19.93-.79-9.28,3.07-13.82,6.94-16.06-.48,.03-.94,.09-1.4,.15-3.63,2.53-6.89,7.21-6.15,15.97Z"/><path class="d" d="M354.72,75.06c-.72-.52-1.67-.6-2.83-.25-4.56,1.38-9.38,15.07-8.96,22.63,.2,3.67,1.16,6.88,2.49,8.74,.1-.22,.19-.44,.29-.66-1.14-1.79-1.98-4.78-2.16-8.12-.4-7.26,4.29-20.73,8.52-22.01,.99-.3,1.74-.25,2.29,.16,1.38,1,1.44,3.99,1.5,6.63,0,.39,.02,.78,.03,1.15l.62-.02c-.01-.37-.02-.75-.03-1.14-.06-2.79-.13-5.94-1.75-7.12Z"/><path class="d" d="M349.49,88.97c-2.55,2.46-2.48,8.08-1.37,11.06,.12-.28,.24-.56,.37-.83-.83-2.88-.76-7.68,1.43-9.78,.98-.94,2.41-.32,4.4,.54,.44,.19,.9,.39,1.38,.58,.18-.15,.36-.3,.54-.45-.59-.23-1.14-.46-1.67-.69-2.04-.88-3.8-1.64-5.07-.42Z"/><path class="d" d="M369.96,177.47c3.32-6.76,7.67-9.35,11.88-11.85,1.76-1.04,3.58-2.12,5.3-3.49,5.1-4.04,9.26-4.68,20.01-3.88-.29-.24-.58-.47-.88-.69-9.66-.68-14.2-.12-19.51,4.08-1.69,1.34-3.49,2.41-5.24,3.44-4.29,2.54-8.72,5.17-12.12,12.1-1.26,2.56-3.21,5.56-5.47,9.04-2.38,3.66-4.98,7.66-7.24,11.88v1.33c2.37-4.57,5.19-8.92,7.76-12.87,2.27-3.49,4.23-6.51,5.51-9.1Z"/></g><path class="i" d="M300.74,145.5c-.49,0-.99-.1-1.47-.31-1.87-.81-2.74-2.99-1.92-4.87l25.12-57.96c.81-1.87,2.99-2.73,4.87-1.92,1.88,.81,2.74,2.99,1.93,4.87l-25.12,57.96c-.61,1.4-1.97,2.23-3.4,2.23Zm33.84-72.46l2.37-5.46c.81-1.88-.05-4.06-1.93-4.87-1.88-.81-4.06,.05-4.87,1.92l-2.37,5.46c-.81,1.88,.05,4.06,1.92,4.87,.48,.21,.98,.31,1.47,.31,1.43,0,2.79-.84,3.4-2.23Zm54.19,76.14v-14.32c0-2.05-1.66-3.7-3.7-3.7s-3.7,1.66-3.7,3.7v14.32c0,2.05,1.66,3.7,3.7,3.7s3.7-1.66,3.7-3.7Zm0-25.66v-2.93c0-2.05-1.66-3.7-3.7-3.7s-3.7,1.66-3.7,3.7v2.93c0,2.05,1.66,3.7,3.7,3.7s3.7-1.66,3.7-3.7Z"/><path class="j" d="M374.48,223.75c5.57,0,10.42-2.14,13.65-5.63-7,6.05-18.28-3.15-18.28-7.67v-24.87c0-9.86-6.62-12.88-11.31-12.88h-54.1c-18.71,0-22.34-6.4-21.29-10.14-.93,2.74-1.49,5.5-1.49,6.26,0,9.28,7.48,17.53,18.31,17.53h56.72v21.14c0,9.28,7.74,16.24,17.79,16.24Z"/><g><path class="h" d="M410.24,121.54c-5.19,.04-7.46-5.05-7.46-5.05,0,0,2.19-5.13,7.38-5.17,5.19-.04,11.41,5.02,11.41,5.02,0,0-6.14,5.16-11.33,5.2Z"/><path class="f" d="M410.24,121.54c5.19-.04,11.33-5.2,11.33-5.2l-18.79,.14s2.27,5.09,7.46,5.05Z"/><path class="k" d="M419.2,118.08c.06-.04,.13-.08,.19-.12l-1.13-1.48,3.18-.02c.08-.07,.13-.11,.13-.11,0,0-.06-.04-.14-.11l-3.18,.02,1.1-1.5c-.06-.04-.13-.08-.18-.12l-1.19,1.62-3.93,.03,2.37-3.22c-.07-.03-.13-.07-.2-.1l-2.44,3.32-3.93,.03,3.35-4.54c-.08-.02-.15-.04-.23-.06l-3.39,4.6-3.93,.03,3.67-4.98c-.11,.01-.21,.03-.31,.05l-3.64,4.93-2.54,.02c-.03,.07-.05,.11-.05,.11,0,0,.02,.05,.05,.11l2.54-.02,3.71,4.88c.1,.01,.2,.03,.31,.04l-3.75-4.92,3.93-.03,3.46,4.55c.07-.02,.15-.04,.22-.06l-3.41-4.49,3.93-.03,2.49,3.28c.07-.03,.13-.07,.2-.1l-2.42-3.18,3.93-.03,1.21,1.6Z"/></g><g><path class="h" d="M293.26,82.68c2.81,2.41,1.64,6.22,1.64,6.22,0,0-3.58,1.73-6.39-.69-2.81-2.42-3.77-8.05-3.77-8.05,0,0,5.72,.11,8.53,2.52Z"/><path class="f" d="M293.26,82.68c-2.8-2.41-8.53-2.52-8.53-2.52l10.16,8.74s1.17-3.8-1.64-6.22Z"/><path class="k" d="M286.83,80.34c-.05,0-.11-.01-.16-.02l-.09,1.32-1.72-1.48h-.13s0,.05,.02,.12l1.72,1.48-1.29,.29s.03,.1,.04,.15l1.4-.31,2.12,1.83-2.78,.61s.04,.1,.06,.15l2.87-.64,2.12,1.83-3.93,.87s.06,.09,.09,.14l3.98-.88,2.12,1.83-4.31,.95c.06,.04,.13,.08,.19,.12l4.27-.94,1.37,1.18s.08-.03,.08-.03l.02-.08-1.37-1.18,.3-4.36c-.05-.06-.1-.11-.15-.17l-.3,4.4-2.12-1.83,.27-4.07s-.1-.05-.15-.07l-.27,4.01-2.12-1.83,.2-2.93c-.05-.02-.1-.03-.15-.04l-.19,2.84-2.13-1.83,.1-1.43Z"/></g><g><path class="h" d="M402.78,97.57c1.69,3.29-.82,6.38-.82,6.38,0,0-3.97,.25-5.66-3.04-1.69-3.29-.47-8.88-.47-8.88,0,0,5.26,2.25,6.95,5.55Z"/><path class="f" d="M402.78,97.57c-1.69-3.29-6.95-5.55-6.95-5.55l6.13,11.92s2.52-3.08,.82-6.38Z"/><path class="k" d="M397.71,92.98s-.09-.05-.14-.08l-.58,1.19-1.04-2.02c-.07-.03-.12-.05-.12-.05,0,0,0,.05-.02,.12l1.04,2.02-1.31-.22s0,.1-.02,.15l1.41,.24,1.28,2.49-2.81-.48c0,.05,0,.11,0,.16l2.9,.49,1.28,2.49-3.96-.67c0,.06,.02,.11,.03,.17l4.02,.68,1.28,2.49-4.35-.74c.04,.07,.08,.12,.13,.18l4.31,.73,.83,1.61c.05,0,.09,0,.09,0,0,0,.02-.03,.05-.07l-.83-1.61,1.92-3.93c-.02-.07-.05-.14-.08-.21l-1.93,3.97-1.28-2.49,1.78-3.67s-.07-.08-.11-.12l-1.76,3.62-1.28-2.49,1.29-2.64s-.08-.06-.13-.1l-1.25,2.56-1.28-2.49,.63-1.29Z"/></g><g><path class="h" d="M407.55,88.02c1.26,2.45-.61,4.73-.61,4.73,0,0-2.95,.19-4.21-2.26-1.26-2.45-.34-6.6-.34-6.6,0,0,3.91,1.67,5.16,4.12Z"/><path class="f" d="M407.55,88.02c-1.25-2.44-5.16-4.12-5.16-4.12l4.55,8.85s1.87-2.29,.61-4.73Z"/><path class="k" d="M403.78,84.61s-.07-.04-.1-.06l-.43,.89-.77-1.5c-.05-.02-.09-.04-.09-.04,0,0,0,.04-.02,.09l.77,1.5-.97-.16s0,.08-.01,.11l1.05,.18,.95,1.85-2.08-.36v.12l2.15,.37,.95,1.85-2.94-.5s.02,.08,.03,.12l2.98,.5,.95,1.85-3.23-.55s.06,.09,.1,.13l3.2,.54,.61,1.2h.07s.02-.02,.04-.05l-.61-1.2,1.42-2.92c-.02-.05-.04-.1-.05-.16l-1.43,2.95-.95-1.85,1.33-2.72s-.05-.06-.08-.09l-1.31,2.69-.95-1.85,.95-1.96s-.06-.05-.09-.07l-.92,1.9-.95-1.85,.47-.95Z"/></g><g><path class="h" d="M324.79,29.46c5.16-.59,7.95,4.23,7.95,4.23,0,0-1.63,5.33-6.79,5.92-5.16,.59-11.88-3.79-11.88-3.79,0,0,5.56-5.78,10.71-6.37Z"/><path class="f" d="M324.79,29.46c-5.16,.59-10.71,6.37-10.71,6.37l18.67-2.14s-2.8-4.83-7.95-4.23Z"/><path class="k" d="M316.25,33.85c-.06,.05-.12,.09-.17,.14l1.27,1.35-3.16,.36c-.07,.07-.12,.12-.12,.12,0,0,.06,.04,.15,.09l3.16-.36-.94,1.61c.06,.03,.13,.06,.2,.09l1.01-1.73,3.9-.45-2.01,3.45c.07,.03,.14,.05,.21,.08l2.08-3.56,3.9-.45-2.84,4.87c.08,.01,.16,.02,.23,.03l2.88-4.93,3.9-.45-3.12,5.34c.1-.02,.2-.05,.3-.08l3.09-5.29,2.52-.29,.04-.12-.06-.1-2.53,.29-4.21-4.46c-.1,0-.21,0-.31,0l4.25,4.5-3.9,.45-3.93-4.15c-.07,.03-.15,.05-.22,.09l3.87,4.1-3.9,.45-2.83-3c-.06,.04-.12,.08-.19,.12l2.74,2.9-3.9,.45-1.38-1.46Z"/></g><g><path class="h" d="M387.21,81.71c-4.93-1.62-5.46-7.17-5.46-7.17,0,0,3.71-4.16,8.64-2.55,4.93,1.61,9.22,8.4,9.22,8.4,0,0-7.46,2.93-12.4,1.32Z"/><path class="f" d="M387.21,81.71c4.93,1.61,12.4-1.32,12.4-1.32l-17.86-5.85s.53,5.55,5.46,7.17Z"/><path class="k" d="M396.8,81.28c.07-.02,.15-.04,.21-.06l-.59-1.76,3.02,.99c.1-.04,.16-.06,.16-.06,0,0-.04-.06-.1-.15l-3.02-.99,1.52-1.07c-.04-.05-.09-.11-.14-.17l-1.65,1.15-3.73-1.22,3.27-2.29c-.05-.05-.1-.1-.16-.16l-3.37,2.36-3.73-1.22,4.62-3.24c-.07-.04-.13-.09-.2-.13l-4.68,3.28-3.73-1.22,5.07-3.55c-.1-.02-.21-.04-.31-.05l-5.02,3.52-2.41-.79c-.05,.05-.08,.09-.08,.09,0,0,0,.05,.02,.12l2.41,.79,1.97,5.81c.09,.05,.18,.09,.28,.14l-1.98-5.86,3.73,1.22,1.84,5.41c.08,0,.15,0,.23,.01l-1.81-5.34,3.73,1.22,1.32,3.9c.07-.01,.15-.02,.22-.03l-1.28-3.78,3.73,1.22,.64,1.9Z"/></g><g><path class="h" d="M346.72,20.84c-3.69,3.65-8.87,1.59-8.87,1.59,0,0-2.01-5.2,1.67-8.85,3.69-3.65,11.68-4.37,11.68-4.37,0,0-.79,7.98-4.48,11.63Z"/><path class="f" d="M346.72,20.84c3.69-3.65,4.48-11.63,4.48-11.63l-13.35,13.22s5.18,2.06,8.87-1.59Z"/><path class="k" d="M350.71,12.11c.02-.07,.03-.15,.05-.22l-1.84-.27,2.26-2.24c.01-.1,.02-.17,.02-.17,0,0-.07,0-.17,.02l-2.26,2.24-.26-1.84c-.07,.01-.14,.03-.21,.05l.28,1.99-2.79,2.76-.55-3.96c-.07,.02-.14,.04-.21,.07l.57,4.08-2.79,2.76-.77-5.59c-.07,.04-.14,.08-.21,.12l.79,5.66-2.79,2.76-.85-6.13c-.07,.08-.13,.17-.19,.25l.84,6.07-1.8,1.79c.02,.07,.04,.12,.04,.12,0,0,.05,.02,.11,.04l1.81-1.79,6.06,.9c.08-.06,.17-.12,.25-.19l-6.12-.91,2.79-2.76,5.65,.84c.04-.07,.08-.13,.12-.2l-5.58-.83,2.79-2.76,4.07,.61c.03-.07,.05-.14,.07-.21l-3.95-.58,2.79-2.76,1.99,.3Z"/></g><g><path class="h" d="M392.67,55.68c-.26,5.18-5.48,7.16-5.48,7.16,0,0-4.99-2.48-4.73-7.66,.26-5.18,5.67-11.1,5.67-11.1,0,0,4.8,6.43,4.54,11.61Z"/><path class="f" d="M392.67,55.68c.26-5.18-4.54-11.61-4.54-11.61l-.94,18.77s5.22-1.97,5.48-7.16Z"/><path class="k" d="M389.73,46.54c-.04-.06-.08-.13-.11-.19l-1.54,1.04,.16-3.18c-.06-.08-.11-.14-.11-.14,0,0-.05,.05-.12,.13l-.16,3.17-1.43-1.19c-.04,.06-.09,.12-.13,.18l1.55,1.28-.2,3.92-3.07-2.55c-.04,.06-.07,.13-.11,.19l3.17,2.63-.2,3.92-4.34-3.6c-.03,.07-.05,.15-.08,.23l4.4,3.65-.19,3.92-4.76-3.95c0,.11,.02,.21,.03,.31l4.71,3.91-.12,2.54c.06,.03,.11,.06,.11,.06,0,0,.05-.02,.11-.05l.13-2.54,5.08-3.43c.02-.1,.04-.2,.06-.31l-5.13,3.46,.2-3.92,4.74-3.2c-.02-.07-.03-.15-.05-.23l-4.68,3.15,.19-3.92,3.42-2.3c-.03-.07-.06-.14-.09-.21l-3.31,2.23,.2-3.92,1.67-1.12Z"/></g><g><path class="h" d="M333.81,3.95c2.35,2.86,.55,6.4,.55,6.4,0,0-3.83,1.09-6.18-1.77-2.35-2.86-2.33-8.58-2.33-8.58,0,0,5.62,1.09,7.97,3.95Z"/><path class="f" d="M333.81,3.95c-2.35-2.86-7.97-3.95-7.97-3.95l8.52,10.35s1.81-3.54-.55-6.4Z"/><path class="k" d="M327.88,.54c-.05-.02-.1-.03-.15-.05l-.31,1.29-1.44-1.75c-.07-.01-.12-.02-.12-.02,0,0,0,.05,0,.12l1.44,1.75-1.33,.06s.01,.1,.02,.16l1.43-.07,1.78,2.16-2.85,.13s.02,.1,.03,.16l2.94-.13,1.78,2.17-4.02,.18c.02,.05,.05,.1,.07,.16l4.07-.19,1.78,2.17-4.41,.2c.05,.06,.11,.1,.16,.15l4.37-.2,1.15,1.4,.09-.02s.01-.03,.04-.08l-1.15-1.4,1.04-4.25c-.04-.07-.08-.13-.12-.19l-1.05,4.29-1.78-2.16,.97-3.96s-.09-.07-.13-.1l-.96,3.91-1.78-2.16,.7-2.85s-.1-.04-.15-.07l-.68,2.77-1.78-2.16,.34-1.39Z"/></g><g><path class="h" d="M401.59,48.41c-.24,3.7-3.98,5.04-3.98,5.04,0,0-3.53-1.83-3.29-5.52,.25-3.69,4.17-7.86,4.17-7.86,0,0,3.35,4.64,3.1,8.34Z"/><path class="f" d="M401.59,48.41c.25-3.7-3.1-8.34-3.1-8.34l-.88,13.38s3.74-1.35,3.98-5.04Z"/><path class="k" d="M399.6,41.85s-.05-.1-.08-.14l-1.11,.73,.15-2.27c-.04-.06-.08-.1-.08-.1,0,0-.03,.04-.08,.09l-.15,2.26-1.01-.86s-.06,.08-.09,.12l1.09,.93-.18,2.8-2.16-1.85s-.05,.09-.08,.14l2.23,1.91-.18,2.8-3.05-2.62c-.02,.05-.04,.11-.06,.16l3.09,2.65-.18,2.8-3.35-2.87c0,.08,0,.15,.01,.22l3.32,2.85-.12,1.81s.08,.04,.08,.04c0,0,.03-.01,.08-.03l.12-1.81,3.66-2.38c.02-.07,.03-.14,.04-.22l-3.7,2.41,.19-2.79,3.41-2.23c-.01-.05-.02-.11-.03-.17l-3.37,2.2,.18-2.79,2.46-1.6c-.02-.05-.04-.1-.06-.15l-2.39,1.56,.18-2.8,1.2-.78Z"/></g><g><path class="h" d="M331.68,19.16c.04,2.98-2.88,4.3-2.88,4.3,0,0-2.95-1.24-2.99-4.22-.04-2.98,2.85-6.57,2.85-6.57,0,0,2.99,3.51,3.03,6.49Z"/><path class="f" d="M331.68,19.16c-.04-2.98-3.03-6.49-3.03-6.49l.15,10.79s2.92-1.32,2.88-4.3Z"/><path class="k" d="M329.66,14.03s-.05-.07-.07-.1l-.85,.65-.02-1.83s-.07-.08-.07-.08c0,0-.02,.03-.06,.08l.02,1.83-.87-.63s-.04,.07-.07,.1l.93,.68,.03,2.26-1.85-1.35s-.04,.08-.06,.11l1.91,1.39,.03,2.26-2.62-1.91s-.02,.09-.04,.13l2.65,1.93,.03,2.26-2.87-2.09c0,.06,.02,.12,.03,.18l2.85,2.07,.02,1.46s.06,.03,.06,.03c0,0,.02-.01,.06-.03l-.02-1.46,2.79-2.15c0-.06,.02-.12,.02-.18l-2.81,2.17-.03-2.25,2.6-2.01s-.02-.08-.04-.13l-2.56,1.98-.03-2.26,1.87-1.44s-.04-.07-.06-.12l-1.82,1.4-.03-2.26,.92-.7Z"/></g><g><path class="h" d="M344.03,7.95c-2.49,1.64-5.18-.11-5.18-.11,0,0-.54-3.16,1.95-4.79,2.49-1.64,7.07-1.13,7.07-1.13,0,0-1.35,4.4-3.85,6.04Z"/><path class="f" d="M344.03,7.95c2.49-1.63,3.85-6.04,3.85-6.04l-9.02,5.92s2.68,1.75,5.18,.11Z"/><path class="k" d="M347.28,3.49s.03-.08,.05-.12l-1-.36,1.53-1c.02-.06,.03-.1,.03-.1h-.1l-1.53,.99,.07-1.07s-.08,0-.13,0l-.07,1.15-1.89,1.24,.14-2.29s-.08,0-.12,.01l-.15,2.36-1.89,1.24,.2-3.23s-.09,.03-.13,.04l-.2,3.27-1.89,1.24,.22-3.54c-.05,.04-.09,.08-.14,.12l-.22,3.51-1.22,.8s0,.07,0,.07c0,0,.03,.01,.06,.03l1.22-.8,3.31,1.2c.06-.03,.11-.05,.16-.08l-3.34-1.21,1.88-1.23,3.09,1.11s.06-.06,.09-.1l-3.05-1.1,1.89-1.24,2.22,.8s.04-.08,.07-.11l-2.16-.78,1.89-1.24,1.09,.39Z"/></g><g><path class="h" d="M402.83,72.56c-2.18-2.03-1.13-5.05-1.13-5.05,0,0,2.94-1.28,5.12,.75,2.19,2.03,2.79,6.59,2.79,6.59,0,0-4.6-.26-6.78-2.29Z"/><path class="f" d="M402.83,72.56c2.18,2.03,6.78,2.29,6.78,2.29l-7.91-7.35s-1.06,3.03,1.13,5.05Z"/><path class="k" d="M407.94,74.65s.08,.01,.12,.02l.11-1.06,1.34,1.24c.06,0,.1,0,.1,0,0,0,0-.04-.01-.1l-1.34-1.24,1.05-.19s-.02-.08-.03-.12l-1.14,.21-1.65-1.54,2.25-.41s-.03-.08-.04-.12l-2.33,.42-1.65-1.54,3.19-.58s-.05-.08-.07-.12l-3.23,.59-1.66-1.54,3.5-.63s-.1-.07-.15-.11l-3.46,.63-1.07-.99s-.07,.02-.07,.02l-.02,.07,1.07,.99-.37,3.5s.07,.09,.11,.14l.37-3.53,1.65,1.54-.34,3.26s.07,.04,.12,.06l.34-3.22,1.65,1.54-.25,2.35s.08,.02,.12,.04l.24-2.28,1.65,1.54-.12,1.15Z"/></g><g><path class="h" d="M406.79,58.82c-3.88-1.16-4.4-5.47-4.4-5.47,0,0,2.8-3.32,6.68-2.16,3.88,1.16,7.35,6.35,7.35,6.35,0,0-5.75,2.44-9.63,1.28Z"/><path class="f" d="M406.79,58.82c3.87,1.16,9.63-1.28,9.63-1.28l-14.03-4.19s.53,4.32,4.4,5.47Z"/><path class="k" d="M414.26,58.29c.05-.02,.11-.04,.16-.05l-.5-1.36,2.37,.71,.13-.05s-.03-.04-.08-.11l-2.37-.71,1.16-.86s-.08-.09-.11-.13l-1.26,.93-2.93-.87,2.5-1.85s-.08-.08-.12-.12l-2.58,1.91-2.93-.88,3.53-2.61c-.05-.04-.1-.07-.16-.1l-3.57,2.65-2.94-.88,3.87-2.87c-.08-.02-.16-.02-.24-.04l-3.84,2.84-1.9-.56s-.06,.07-.06,.07c0,0,0,.04,.02,.09l1.89,.57,1.65,4.48c.07,.03,.14,.07,.22,.1l-1.66-4.52,2.93,.88,1.54,4.18c.06,0,.12,0,.18,0l-1.52-4.12,2.93,.88,1.11,3.01c.06,0,.11-.02,.17-.03l-1.08-2.92,2.93,.87,.54,1.47Z"/></g><g><path class="h" d="M309.07,88.83c-2.91,.65-4.8-1.93-4.8-1.93,0,0,.61-3.15,3.52-3.8,2.91-.65,7.01,1.43,7.01,1.43,0,0-2.82,3.64-5.73,4.3Z"/><path class="f" d="M309.07,88.83c2.91-.65,5.73-4.3,5.73-4.3l-10.53,2.37s1.89,2.58,4.8,1.93Z"/><path class="k" d="M313.68,85.79l.09-.09-.81-.69,1.78-.4s.06-.08,.06-.08l-.09-.04-1.78,.4,.44-.97s-.08-.03-.12-.04l-.47,1.05-2.2,.5,.94-2.09s-.08-.02-.12-.03l-.97,2.16-2.2,.49,1.33-2.95s-.09,0-.14,0l-1.34,2.99-2.2,.49,1.46-3.24c-.06,.02-.11,.04-.17,.06l-1.44,3.21-1.42,.32s-.02,.07-.02,.07c0,0,.02,.02,.05,.05l1.42-.32,2.67,2.29c.06,0,.12,0,.18-.01l-2.7-2.31,2.2-.49,2.5,2.13s.08-.04,.12-.06l-2.46-2.11,2.2-.49,1.8,1.54s.07-.05,.1-.08l-1.75-1.49,2.2-.5,.88,.75Z"/></g><g><path class="h" d="M414.13,98.83c-2.91,.65-4.8-1.93-4.8-1.93,0,0,.61-3.15,3.52-3.8,2.91-.65,7.01,1.43,7.01,1.43,0,0-2.82,3.64-5.73,4.3Z"/><path class="f" d="M414.13,98.83c2.91-.65,5.73-4.3,5.73-4.3l-10.53,2.37s1.89,2.58,4.8,1.93Z"/><path class="k" d="M418.73,95.8s.06-.06,.09-.09l-.81-.69,1.78-.4s.06-.08,.06-.08c0,0-.03-.02-.09-.04l-1.78,.4,.44-.97s-.08-.03-.12-.04l-.47,1.05-2.2,.5,.94-2.09s-.08-.02-.12-.03l-.97,2.16-2.2,.49,1.33-2.95s-.09,0-.14,0l-1.34,2.99-2.2,.49,1.46-3.24c-.06,.02-.11,.04-.17,.06l-1.44,3.21-1.42,.32s-.02,.07-.02,.07c0,0,.02,.02,.05,.05l1.42-.32,2.67,2.29c.06,0,.12,0,.18-.01l-2.7-2.31,2.2-.49,2.5,2.13s.08-.04,.12-.06l-2.46-2.11,2.2-.49,1.8,1.54s.06-.05,.1-.08l-1.75-1.49,2.2-.5,.88,.75Z"/></g><g><path class="h" d="M295.38,102.98c2.67,1.32,2.53,4.52,2.53,4.52,0,0-2.45,2.07-5.12,.75-2.67-1.32-4.56-5.52-4.56-5.52,0,0,4.48-1.07,7.15,.25Z"/><path class="f" d="M295.38,102.98c-2.67-1.32-7.15-.25-7.15-.25l9.68,4.77s.15-3.2-2.53-4.52Z"/><path class="k" d="M289.89,102.45s-.09,.01-.12,.01l.2,1.05-1.64-.81-.1,.02s.02,.04,.04,.09l1.64,.81-.95,.49s.04,.07,.06,.11l1.03-.52,2.02,1-2.04,1.04s.05,.07,.07,.1l2.11-1.07,2.02,1-2.89,1.47s.07,.06,.1,.09l2.92-1.49,2.02,1-3.17,1.6c.06,.02,.12,.04,.17,.06l3.14-1.59,1.31,.64s.06-.04,.06-.04c0,0,0-.03,0-.07l-1.31-.65-.65-3.46c-.05-.04-.09-.07-.15-.1l.65,3.49-2.02-1-.61-3.23s-.08-.02-.13-.03l.6,3.18-2.02-1-.43-2.32s-.09,0-.13,0l.42,2.26-2.03-1-.21-1.13Z"/></g><g><path class="h" d="M345.68,198.14c2.98,.11,4.16,3.09,4.16,3.09,0,0-1.39,2.89-4.37,2.78-2.98-.11-6.42-3.17-6.42-3.17,0,0,3.65-2.81,6.63-2.7Z"/><path class="f" d="M345.68,198.14c-2.98-.11-6.63,2.7-6.63,2.7l10.79,.39s-1.18-2.98-4.16-3.09Z"/><path class="k" d="M340.45,199.91s-.07,.04-.11,.06l.61,.88-1.82-.07s-.08,.06-.08,.06c0,0,.03,.03,.08,.06l1.82,.07-.67,.83s.07,.05,.1,.07l.72-.9,2.25,.08-1.44,1.78s.07,.04,.11,.06l1.49-1.84,2.26,.08-2.04,2.52s.09,.03,.13,.04l2.06-2.56,2.26,.08-2.23,2.76c.06,0,.12-.01,.18-.02l2.21-2.74,1.46,.05s.04-.06,.04-.06c0,0-.01-.03-.03-.06l-1.46-.05-2.01-2.89c-.06-.01-.11-.02-.18-.03l2.03,2.92-2.25-.08-1.88-2.69s-.08,.02-.13,.03l1.85,2.66-2.25-.08-1.35-1.94s-.08,.04-.12,.05l1.31,1.88-2.26-.08-.66-.95Z"/></g><g><path class="h" d="M348.22,204.55c1.47-1.63,3.7-.88,3.7-.88,0,0,.97,2.15-.5,3.77-1.47,1.63-4.82,2.12-4.82,2.12,0,0,.14-3.38,1.61-5.01Z"/><path class="f" d="M348.22,204.55c-1.47,1.63-1.61,5.01-1.61,5.01l5.31-5.9s-2.24-.75-3.7,.88Z"/><path class="k" d="M346.75,208.33s0,.06-.01,.09l.78,.07-.9,1s0,.07,0,.07c0,0,.03,0,.07-.01l.9-1,.15,.77s.06-.02,.09-.02l-.16-.83,1.11-1.23,.33,1.65s.06-.02,.09-.03l-.34-1.71,1.11-1.23,.46,2.34s.06-.04,.08-.05l-.47-2.37,1.11-1.23,.5,2.56s.05-.07,.08-.11l-.5-2.54,.72-.8s-.02-.05-.02-.05c0,0-.02,0-.05-.01l-.72,.8-2.58-.23s-.07,.05-.1,.08l2.6,.24-1.11,1.23-2.4-.22s-.03,.06-.05,.09l2.37,.21-1.11,1.23-1.73-.16s-.02,.06-.03,.09l1.68,.15-1.11,1.23-.84-.08Z"/></g><g><path class="h" d="M375.4,65.46c1.57,2.65-.37,5.33-.37,5.33,0,0-3.28,.4-4.85-2.24-1.56-2.65-.82-7.34-.82-7.34,0,0,4.47,1.61,6.04,4.26Z"/><path class="f" d="M375.4,65.46c-1.56-2.65-6.04-4.26-6.04-4.26l5.67,9.59s1.93-2.68,.37-5.33Z"/><path class="k" d="M370.96,61.9s-.08-.04-.12-.06l-.42,1.02-.96-1.62c-.06-.02-.1-.04-.1-.04v.1l.94,1.62-1.1-.12s0,.09,0,.13l1.18,.13,1.18,2-2.35-.26s0,.09,0,.13l2.43,.27,1.19,2-3.32-.37s.02,.09,.04,.14l3.37,.37,1.19,2-3.64-.4c.04,.05,.08,.1,.11,.15l3.61,.4,.77,1.29s.07,0,.07,0c0,0,.01-.03,.04-.06l-.76-1.3,1.39-3.35c-.03-.06-.04-.11-.07-.17l-1.41,3.38-1.18-2,1.29-3.13s-.06-.06-.1-.1l-1.28,3.09-1.19-2,.94-2.25s-.07-.05-.11-.08l-.91,2.19-1.19-2,.46-1.1Z"/></g><g><path class="h" d="M304.85,79.01c-3.41,1.9-6.75-.65-6.75-.65,0,0-.4-4.17,3.01-6.07,3.41-1.9,9.34-.8,9.34-.8,0,0-2.19,5.62-5.6,7.51Z"/><path class="f" d="M304.85,79.01c3.41-1.89,5.6-7.51,5.6-7.51l-12.35,6.86s3.34,2.54,6.75,.65Z"/><path class="k" d="M309.51,73.5s.05-.1,.08-.14l-1.27-.57,2.09-1.16c.03-.07,.05-.12,.05-.12,0,0-.05,0-.13-.02l-2.09,1.16,.19-1.39c-.05,0-.11,0-.16-.01l-.2,1.49-2.58,1.44,.4-2.97c-.05,0-.11,0-.16,0l-.42,3.07-2.58,1.44,.57-4.2c-.06,.01-.11,.03-.17,.04l-.58,4.25-2.58,1.44,.63-4.6c-.07,.05-.13,.1-.19,.14l-.62,4.56-1.67,.93c0,.05,0,.09,0,.09l.08,.05,1.67-.93,4.2,1.88c.08-.03,.14-.05,.22-.08l-4.24-1.9,2.58-1.43,3.92,1.75s.08-.08,.13-.12l-3.87-1.73,2.58-1.44,2.82,1.27s.06-.09,.1-.14l-2.74-1.23,2.58-1.44,1.38,.62Z"/></g></g><g><path class="g" d="M130.98,116.41c-.56,.37-1.37,.28-1.24-.65h0c1.35-5.07,2.8-10.84,2.8-10.84l-1.39,.85s-.85,4.86-2.28,8.87c-1.43,4.01-2.01,4.47-2.82,6.09-.81,1.62-2.39,5.67-4.67,6.83-2.28,1.16-2.39,1.08-4.09,1.85-1.7,.77-1.62,1.74-2.35,2.04s-1.13-.31-1.13-2.16v-14.61c0-9.28-8.25-16.24-17.79-16.24-10.06,0-17.79,6.96-17.79,16.24v22.17c0,2.78-2.09,2.08-2.63,.31-.54-1.77-1.7-2.16-2.85-4.71-1.16-2.55-1.23-8.21-1.23-8.21l-1-.96s.23,5.17,.54,8.18c.04,.41,.11,.88,.21,1.36h0c-.08,.89-1.87-.46-2.44-1-.58-.54-1.66-.71-2.41-1.5-.75-.79-1.1-1.68-1.1-1.68l-.23,.12,.69,1.58s1.66,1.74,3.66,3.01c2.01,1.27,2.97,3.66,2.97,3.66,.7,2.03,1.57,3.96,2.43,5.09,1.7,2.24,3.4,6.17,3.4,8.95v3.08H46.01c8.59-19.84,16.24-37.22,24.03-54.96h0c1.56-3.55,7.81-8.06,11.59-9.84,3.78-1.77,10.65-7.1,12.65-9.95,2-2.85,8.25-8.1,8.25-8.1h-1.08s-6.25,5.4-7.64,6.71c-1.39,1.31-2.89,1.35-3.59,2.51-.69,1.16-1.74,2.31-3.09,3.36-1.35,1.04-5.82,2.66-7.52,3.16-1.7,.5-3.69-.6-2.89-3.12h0c3.64-8.32,7.37-16.87,11.3-25.95,1.03-2.32,1.03-4.12,1.03-5.67,0-9.02-9.02-16.76-17.79-16.76-4.99,0-9.99,2.15-13.27,5.8h0c-2.16,2.01-2.96,1.83-2.96,.49s1.7-7.46,3.45-9.62c1.75-2.16,1.75-2.26,2.26-4.78,.51-2.52,1.8-5.5,1.8-5.5l-.36-1.08s-1.62,2.39-2.7,5.86c-1.08,3.47-3.63,7.64-5.09,10.57-1.47,2.93-3.39,10.26-3.86,14.89-.46,4.63-4.04,13.72-4.04,13.72h0l-17.16,39.6c-3.85,2.02-5.17-1.63-6.25-6.11-1.08-4.47-4.09-12.65-5.25-17.28-1.16-4.63-1-13.88-1-13.88l-1.23-.54s-.23,10.72,0,14.27c.13,1.97,1.21,5.6,2.46,10.9,.2,.87-.66,1.47-1.97,.6-1.31-.87-3.78-2.65-4.15-3.42-.38-.77-1.73-1.08-3.12-1.65-1.39-.57-3.75-1.85-3.75-1.85h-.72s3.39,2.31,5.71,3.81c2.31,1.49,5.04,4.32,6.38,5.09,1.33,.77,2.51,1.38,3.09,4.2,.54,2.76,1.05,5.81,1.48,9.17,1.24,9.6-.14,15.68-1.18,18.66l-.95,2.2h0l-13.07,30.17c-1.55,3.35-2.58,7.99-2.58,9.02,0,9.28,7.48,17.53,18.31,17.53h56.72v21.14c0,9.28,7.74,16.24,17.79,16.24s17.79-6.96,17.79-16.24v-21.14h3.35c9.8,0,17.27-7.22,17.27-16.24,0-8.51-7.48-15.99-17.27-15.99h-3.35v-10.57s1.44-6.4,5.61-10.64c4.03-4.11,7.18-6.86,8.71-11.5v.07c.53-1.78,2.48-3.77,4.06-4.81,1.58-1.04,3.7-2.81,3.7-2.81v-.54s-1.54,1.39-2.82,1.99c-1.27,.6-1.54,.73-2.1,1.1Z"/><g><path class="d" d="M49.71,119.33c-4.43-2.95-8.62-5.74-9.02-9.09-.22-1.87,.45-3.47,2-4.77,3.95-3.3,11.99-3.58,14.47-2.82,2.69,.82,4.43,6.51,5.7,10.67,.14,.46,.27,.88,.4,1.29,.13-.29,.25-.58,.38-.86-.06-.2-.12-.4-.19-.6-1.39-4.53-3.11-10.16-6.11-11.08-2.58-.79-10.94-.5-15.04,2.94-1.72,1.44-2.47,3.22-2.22,5.31,.43,3.63,4.73,6.5,9.29,9.53,3.18,2.12,6.43,4.28,8.62,6.8,.09-.2,.17-.4,.26-.59-2.28-2.55-5.51-4.71-8.54-6.72Z"/><path class="d" d="M40.04,151.22c-1.72,6.14-3.87,13.78,1.21,18.73,3.95,3.85,10.75,5.14,17.02,5.13,3.42,0,6.69-.38,9.23-.94,6.36-1.39,19.66-7.29,20.2-16.64,.27-4.73-.29-11.62-.89-18.9-.55-6.73-1.12-13.68-1.17-20.1-.01-1.95-.09-3.78-.17-5.54-.21-4.95-.38-8.99,.94-12.06-.29,.17-.57,.34-.85,.52-1.06,3.1-.89,7-.7,11.57,.07,1.76,.15,3.59,.16,5.52,.05,6.44,.62,13.41,1.17,20.14,.59,7.27,1.16,14.13,.89,18.82-.51,8.91-13.75,14.77-19.71,16.07-7.07,1.55-19.76,1.75-25.69-4.03-4.81-4.69-2.72-12.14-1.05-18.12,.45-1.59,.87-3.09,1.13-4.43,.53-2.68,.23-5.65-.05-8.52-.4-4.03-.75-7.51,1.39-8.75,.88-.51,2-.54,3.32-.1,2.64,.88,5.61,3.54,7.57,6.19,.1-.22,.19-.44,.29-.66-2.01-2.63-4.94-5.21-7.66-6.12-1.5-.5-2.78-.45-3.82,.15-2.49,1.44-2.12,5.11-1.7,9.35,.28,2.83,.58,5.75,.06,8.34-.26,1.32-.68,2.81-1.12,4.38Z"/><path class="d" d="M41.87,83.42c3.96-2.7,8.45-5.76,14.06-11.29,10.72-10.55,16.17-25.25,18.14-36.33-.2-.04-.4-.07-.61-.1-1.94,10.97-7.35,25.54-17.96,35.99-5.57,5.49-10.04,8.53-13.98,11.22-1.2,.82-2.34,1.6-3.44,2.4l-.49,1.13c1.35-1.02,2.77-1.99,4.28-3.02Z"/><path class="d" d="M46.67,65.44c-.11,.27-.17,.43-.17,.43l-.16,.37c3.64-1.48,8.07-4.07,8.68-5.42,.15-.34,.06-.55-.05-.66-.37-.38-1.24-.08-3.8,.97-1.1,.45-2.28,.92-3.39,1.29-.09,.26-.18,.5-.26,.74,1.26-.39,2.64-.95,3.89-1.46,1.14-.46,2.52-1.03,3.03-1.08-.57,1.08-4.35,3.35-7.76,4.82Z"/><path class="d" d="M60.52,60.51c1.08-2.64,2.46-5.09,3.93-7.69,2.85-5.04,5.78-10.23,6.7-17.28-.21,0-.42,.03-.63,.03-.92,6.89-3.8,11.99-6.6,16.95-1.48,2.61-2.88,5.08-3.97,7.76-2.54,6.24-10.59,10.1-16.63,12.93l-.37,.86c.1-.04,.18-.09,.28-.13,6.17-2.89,14.62-6.85,17.29-13.43Z"/><path class="d" d="M104.12,101.74c.46-.25,.94-.51,1.41-.78-.21-.12-.43-.23-.64-.35-.35,.2-.71,.4-1.06,.59-3.63,1.99-7.39,4.05-7.39,8.67,0,3.6,.85,21.82,2.53,22.79,.08,.05,.17,.07,.25,.07s.17-.02,.25-.07c.9-.51,1.09-2.93,1.42-7.9,.22-3.31,.48-7.43,1.15-11.34,1.04-6.06,2.95-8.98,5.53-11.09-.17-.13-.33-.26-.51-.39-2.62,2.17-4.58,5.19-5.63,11.37-.67,3.94-.94,8.08-1.16,11.4-.23,3.5-.44,6.82-1.04,7.36-1.07-1.18-2.17-15.97-2.17-22.21,0-4.25,3.43-6.14,7.07-8.13Z"/><path class="d" d="M89.52,166.89c.72-1.69,1.15-3.56,1.53-5.21,.53-2.31,.99-4.31,2.02-4.86,.4-.21,.89-.2,1.51,.03,.76,.29,1.52,.66,2.33,1.05,3.16,1.53,6.74,3.26,11.71,.62,2.9-1.54,6.35-3.23,9.74-4.32-.39-.03-.79-.06-1.19-.06h-.53c-2.93,1.08-5.83,2.51-8.32,3.84-4.69,2.49-7.98,.91-11.15-.63-.82-.4-1.59-.77-2.38-1.07-.79-.3-1.45-.3-2.02,0-1.28,.68-1.76,2.81-2.33,5.27-.37,1.62-.8,3.46-1.5,5.1-.81,1.9-2.14,3.59-3.43,5.23-2.15,2.74-4.19,5.32-3.79,8.69,.47,3.96-1.41,10.56-3.5,15.32v1.49c2.33-4.83,4.65-12.31,4.11-16.88-.37-3.11,1.59-5.6,3.67-8.23,1.31-1.67,2.67-3.39,3.51-5.37Z"/><path class="d" d="M92.33,117.01c1.76,10.86,5.88,25.96,9.04,26.07h.05c.38,0,.74-.16,1.07-.46,1.74-1.64,2.75-8.09,3-19.17,.19-8.5,1.65-14.44,4.63-18.68-.14-.16-.27-.33-.41-.49-3.12,4.36-4.64,10.43-4.84,19.16-.31,13.59-1.7,17.69-2.81,18.74-.22,.21-.45,.29-.68,.3-2.23-.08-6.33-12.5-8.45-25.56-1.56-9.6,3.21-15.2,8.69-17.63-.3-.09-.61-.17-.91-.25-5.64,2.83-9.85,8.92-8.39,17.98Z"/><path class="d" d="M50.7,59.95c3.02-1.39,4.48-4,5.45-5.72,.41-.74,.84-1.5,1.1-1.54,.04,0,.12,.03,.21,.11,1.3,1.21,.69,5.04-.59,8.2-1.04,2.57-7.3,6.55-11.8,8.18l-.33,.76c4.53-1.52,11.48-5.69,12.7-8.71,1.36-3.36,2.03-7.4,.44-8.88-.23-.21-.48-.3-.72-.26-.56,.09-.95,.79-1.55,1.85-.93,1.65-2.33,4.15-5.16,5.46-.72,.33-1.33,.54-1.87,.69-.08,.23-.15,.47-.23,.69,.67-.15,1.44-.4,2.36-.82Z"/><path class="d" d="M111.14,182.6c-7.17,2.68-6.77,11.43-6.27,22.52,.36,7.98-2.56,14.34-5.47,18.35,.29-.05,.58-.11,.87-.17,2.84-4.13,5.57-10.42,5.22-18.21-.49-10.83-.88-19.39,5.87-21.91,3.06-1.14,12.19-4.06,16.62-.3,.17-.13,.34-.26,.5-.39-4.64-4.09-14.16-1.07-17.34,.11Z"/><path class="d" d="M120.28,171.78c-11.47,1-17.86,7.35-22.79,22.63-2.39,7.41-3.2,14.39-3.84,20-.41,3.55-.76,6.58-1.4,8.99,.2,.04,.41,.06,.62,.09,.63-2.44,.98-5.48,1.39-9.01,.64-5.58,1.44-12.53,3.82-19.88,4.91-15.2,10.94-21.22,22.26-22.21,6.55-.57,10.45,1.9,12.67,4.33,.09-.2,.18-.41,.26-.62-2.35-2.48-6.37-4.92-12.99-4.33Z"/><path class="d" d="M113.82,193.43c-1.01,.58-1.91,1.32-2.68,2.23-2.63,3.07-3.55,7.64-2.67,13.2,.55,3.45,1.37,6.11,2.03,8.25v.03c.17-.2,.32-.4,.47-.6-.63-2.05-1.38-4.56-1.88-7.77-.85-5.38,.02-9.77,2.53-12.71,.64-.75,1.39-1.38,2.21-1.89v-.74Z"/><path class="d" d="M94.17,186.55c3.08-6.97,6.26-14.17,12.29-17.48,6.26-3.43,16.45-5.75,23.82-3.55,1.47,.44,2.76,1.05,3.88,1.8-.06-.29-.13-.58-.2-.87-1.04-.62-2.2-1.13-3.5-1.52-7.88-2.36-18.12,.22-24.29,3.6-6.22,3.41-9.44,10.71-12.56,17.77-1.76,3.98-3.41,7.73-5.54,10.7-3.97,5.55-5.72,13.54-6.33,20.35,.18,.23,.36,.46,.56,.67,.55-6.84,2.26-15.04,6.28-20.66,2.17-3.02,3.83-6.81,5.6-10.81Z"/><path class="d" d="M61.46,38.44c-2.18,5.42-3.17,11-.97,12.34,.17,.11,.36,.16,.55,.16,.15,0,.29-.03,.44-.1,2.08-.91,4.24-9.13,5.5-14.77-.23,.05-.45,.11-.67,.18-1.54,6.82-3.5,13.34-5.07,14.03-.15,.07-.28,.06-.42-.03-1.92-1.17-.74-6.99,1.56-12.38-.31,.17-.61,.38-.91,.57Z"/><path class="d" d="M20.82,123.65c-.11,.56-.22,1.08-.34,1.56,1.09-1.63,2.35-3.18,5.74-6.8,4.25-4.55,3.21-7.14,2.29-9.43-.4-1.01-.76-1.94-.66-2.98-.21,.03-.42,.04-.62,.03-.09,1.16,.31,2.18,.71,3.18,.89,2.22,1.81,4.52-2.17,8.78-2.6,2.78-3.96,4.35-4.94,5.67Z"/><path class="d" d="M13.23,170.29c.62-3.88-.54-6.9-2-7.88-.75-.5-1.59-.52-2.37-.04-.99,.61-1.36,2.36-1.82,4.59-.5,2.38-1.12,5.35-2.71,7.9,.09,.24,.17,.49,.28,.73,1.84-2.73,2.51-5.94,3.04-8.5,.42-2,.78-3.72,1.54-4.19,.58-.35,1.16-.34,1.71,.03,1.27,.85,2.31,3.69,1.74,7.27-.74,4.62-.56,9.06,2.51,15.11,.28,.1,.55,.2,.84,.28-3.27-6.2-3.48-10.65-2.74-15.3Z"/><path class="d" d="M30.93,182.54c-6.56-2.52-12.22-4.7-12.76-9.86-.51-4.86,1.85-12.12,3.74-17.96,1.64-5.07,2.83-8.73,2.08-10.03-.29-.5-.72-.79-1.24-.82-1.74-.12-4.5,2.43-8.74,7.98-2.23,2.92-4.81,5.91-8.53,8.63-.14,.34-.28,.7-.42,1.05,4.2-2.91,7.02-6.16,9.43-9.32,3.99-5.23,6.79-7.84,8.21-7.74,.32,.02,.55,.18,.74,.51,.62,1.07-.72,5.18-2.13,9.53-1.91,5.89-4.29,13.23-3.77,18.22,.58,5.54,6.41,7.78,13.15,10.38,2.47,.95,5.13,1.98,7.72,3.25h1.37c-2.95-1.54-6.03-2.74-8.87-3.83Z"/><path class="d" d="M49.96,55.29c-.07,.29-.15,.59-.23,.89,2.45-1.53,6.49-4.53,7.51-8.26,.53-1.93,.66-3.35,.78-4.6,.07-.81,.14-1.55,.32-2.33-.11,.11-.23,.21-.33,.33h0c-.15,.14-.28,.25-.42,.37-.08,.51-.12,1.03-.17,1.57-.11,1.23-.24,2.62-.76,4.49-.88,3.22-4.3,5.96-6.69,7.53Z"/><path class="d" d="M73.61,55.43c-.04,.5-.08,1.05-.12,1.63-.49,6.94-1.31,18.55-10.65,25.19-3.97,2.82-8.45,3.98-13.18,5.2-5.25,1.36-10.63,2.76-15.37,6.59l-.56,1.3c4.87-4.38,10.55-5.86,16.08-7.29,4.58-1.18,9.32-2.41,13.39-5.29,9.58-6.81,10.45-19.07,10.91-25.65,.04-.58,.08-1.13,.12-1.62,.44-5.35,1.34-12.65,4.05-18.36-.19-.09-.37-.18-.56-.26-2.75,5.8-3.66,13.17-4.11,18.57Z"/><path class="d" d="M36.05,103.12c4.45-3.44,13.83-6.29,17.21-6.52,3.97-.27,7.58,2.05,8.53,5.54,.63,2.35,1.99,5.58,3.3,8.32,.11-.25,.22-.5,.33-.75-1.22-2.6-2.45-5.55-3.04-7.73-1.02-3.77-4.87-6.3-9.16-5.99-3.45,.24-13.01,3.14-17.55,6.65-2.31,1.79-1.55,4.36-.66,7.33,.97,3.27,2.07,6.97-.24,10.96-1.94,3.35-5.36,5.6-9.33,8.21-2.87,1.89-6.14,4.04-9.4,7.02l-.6,1.39c3.49-3.38,7.05-5.73,10.34-7.89,4.03-2.65,7.51-4.94,9.52-8.42,2.45-4.23,1.25-8.23,.29-11.45-.85-2.87-1.53-5.14,.45-6.66Z"/><path class="d" d="M86.44,44.02c-3.37,6.05-5.56,16.07-2.73,23.9,.12-.29,.25-.58,.38-.87-2.31-7.37-.31-16.67,2.74-22.43-.12-.21-.26-.41-.39-.61Z"/><path class="d" d="M113.02,109.81c-3.31,6.4-4.62,15.1-4.03,22.2,.89,10.64-1.38,19.99-5.4,22.23-1.17,.66-2.19,.77-3.09,.34-1.94-.91-3.44-4.34-4.58-10.46-.54-2.93-1.57-6.17-2.65-9.61-1.83-5.8-3.9-12.38-4.54-19.93-.79-9.35,3.13-13.89,7.02-16.12-.43,0-.86,.02-1.29,.05-3.71,2.49-7.11,7.2-6.35,16.11,.64,7.62,2.73,14.23,4.57,20.07,1.08,3.42,2.09,6.64,2.63,9.53,1.19,6.43,2.76,9.89,4.92,10.91,.44,.21,.9,.31,1.38,.31,.71,0,1.47-.22,2.27-.67,4.77-2.66,6.49-13.5,5.71-22.82-.57-6.79,.63-15.05,3.66-21.27-.08-.29-.15-.59-.25-.88Z"/><path class="d" d="M64.71,75.89c3.58-5.44,5.94-13.34,5.22-14.67-.14-.27-.44-.37-.73-.22-1.4,.69-3.6,3.93-5.93,7.37l-.41,.6c-3.7,5.44-9.38,9.3-13.14,11.84-2.36,1.6-3.41,2.34-3.51,2.95-.03,.16,0,.31,.1,.43,.19,.25,.59,.37,1.26,.37,3.32,0,13.44-3.04,17.15-8.67Zm-17.89,7.96c.06-.37,1.68-1.47,3.25-2.53,3.57-2.42,9.53-6.46,13.3-12.01l.41-.6c2.15-3.17,4.38-6.44,5.64-7.13,.36,1-1.47,8.27-5.23,13.97-3.44,5.22-13.24,8.39-16.63,8.39-.54,0-.71-.09-.74-.09h0Z"/><path class="d" d="M92.61,177.47c3.32-6.76,7.67-9.35,11.88-11.85,1.76-1.04,3.58-2.12,5.3-3.49,4.9-3.88,8.93-4.63,18.8-3.97-.29-.24-.58-.46-.89-.68-8.82-.54-13.21,.14-18.29,4.16-1.69,1.34-3.49,2.41-5.24,3.44-4.29,2.54-8.72,5.17-12.12,12.1-1.26,2.56-3.21,5.56-5.47,9.04-2.78,4.28-5.87,9.03-8.35,14.03v1.42c2.55-5.39,5.88-10.52,8.87-15.11,2.27-3.49,4.23-6.51,5.5-9.1Z"/><path class="d" d="M41.62,180.83c-3.78-.05-12.95-.57-16.25-4.27-.88-.98-1.26-2.13-1.13-3.41,.24-2.48,1.3-5.7,2.41-9.11,1.7-5.2,3.64-11.09,3.45-16.44-.29-8.36-1.19-12.2-3.09-13.23-.8-.43-1.75-.32-2.83,.33-1.58,.95-3.49,3.12-5.91,5.87-2.21,2.51-4.74,5.36-7.59,7.96l-.59,1.37c3.3-2.85,6.16-6.09,8.65-8.91,2.29-2.6,4.27-4.85,5.77-5.75,.89-.54,1.62-.64,2.22-.31,2.1,1.14,2.58,7.39,2.77,12.71,.18,5.24-1.73,11.08-3.42,16.23-1.13,3.44-2.19,6.69-2.44,9.24-.14,1.46,.29,2.77,1.28,3.88,3.47,3.88,12.84,4.42,16.71,4.48,5.34,.07,12.06,2.04,17.45,4.91h1.29c-5.64-3.25-12.87-5.45-18.74-5.53Z"/><path class="d" d="M53.12,178.78c-6.02-.76-11.71-1.47-14.73-3.25-6.86-4.03-5.95-11.58-5.07-18.89,.3-2.51,.62-5.1,.59-7.46l-.02-1.23c-.12-8.99-.28-21.3,6.59-24.85,1.86-.96,3.93-1.07,6.15-.32,3.79,1.28,7.38,4.82,9.59,7.9,.09-.21,.19-.43,.28-.65-2.29-3.1-5.88-6.56-9.68-7.84-2.38-.8-4.61-.68-6.63,.36-7.21,3.72-7.05,16.26-6.93,25.41l.02,1.23c.03,2.32-.27,4.78-.59,7.38-.91,7.5-1.84,15.26,5.37,19.49,3.14,1.84,8.89,2.57,14.97,3.33,8.56,1.08,18.22,2.31,21.71,6.97h.77c-3.43-5.19-13.5-6.46-22.4-7.59Z"/><path class="d" d="M82.77,39.95c-.16-.13-.31-.27-.47-.4-3.84,5.74-4.52,14.54-4.98,20.62-.31,4.05,1.29,7.91,2.7,11.31,.37,.89,.72,1.75,1.04,2.58,.12-.27,.23-.54,.35-.8-.26-.66-.53-1.32-.81-2.01-1.38-3.34-2.95-7.12-2.65-11.03,.46-5.99,1.13-14.66,4.84-20.27Z"/><path class="d" d="M73.25,154.33c1.44,4.47,2.69,8.32-2.12,12.91-2.42,2.31-7.01,3.14-12.59,2.29-6.7-1.03-13.29-4.25-15-7.35-2.96-5.33,.43-11.18,2.9-15.46l.35-.6c1.45-2.52,.56-5.09-.16-7.16-.52-1.49-.96-2.78-.42-3.63,.18-.29,.41-.4,.74-.35,1.24,.18,3.28,2.58,4.86,5.84l.32-.73c-1.59-3.09-3.61-5.5-5.08-5.72-.56-.08-1.03,.14-1.35,.64-.7,1.1-.21,2.52,.36,4.16,.71,2.05,1.51,4.37,.2,6.65l-.34,.6c-2.4,4.15-6.03,10.43-2.9,16.07,1.83,3.3,8.47,6.59,15.45,7.66,1.16,.18,2.65,.34,4.25,.34,3.07,0,6.55-.59,8.86-2.79,5.09-4.85,3.73-9.07,2.28-13.54h-.65c.02,.06,.04,.12,.06,.19Z"/><path class="d" d="M53.34,115.56c-1.95-.9-3.8-1.74-5.02-2.93-1.03-1-1.33-1.92-.91-2.74,.81-1.57,4.2-2.53,7.12-2,2.33,.42,4.76,3.84,7.23,10.17,.12-.27,.24-.54,.36-.81-1.51-3.8-4.17-9.37-7.48-9.96-2.85-.51-6.75,.32-7.78,2.33-.39,.75-.52,1.96,1.03,3.47,1.3,1.26,3.19,2.13,5.19,3.05,2.61,1.2,5.46,2.51,7.37,4.92,.09-.21,.19-.43,.28-.64-1.97-2.35-4.79-3.65-7.39-4.84Z"/><path class="d" d="M58.3,159.9c.78,.53,1.47,.72,2.05,.72,.5,0,.92-.14,1.24-.31,1.52-.79,2.54-3.05,2.86-6.18h-.62c-.3,2.85-1.21,4.95-2.52,5.63-.79,.42-1.69,.29-2.66-.38-1.69-1.15-2.66-2.69-2.6-4.12,.02-.4,.14-.78,.31-1.14h-.69c-.15,.4-.22,.78-.23,1.11-.07,1.64,1,3.38,2.87,4.65Z"/><path class="d" d="M80.84,106.04c-1.19,7.21-.47,17.59,.03,24.55,.22,3.14,.4,5.62,.35,6.94-.09,2.47,.23,5.4,.55,8.22,.4,3.54,.77,6.88,.38,9.33-.17,1.09-.5,1.7-.91,1.73-.01,0-.02,0-.04,0-.81,0-2.14-1.8-2.97-3.92v1.25h-.12c.84,1.72,2.02,3.29,3.09,3.29,.02,0,.05,0,.07,0,.75-.05,1.25-.81,1.48-2.25,.4-2.53,.03-5.91-.37-9.49-.31-2.8-.64-5.71-.55-8.13,.05-1.35-.12-3.85-.35-7.01-.52-7.35-1.3-18.56,.19-25.64-.29,.37-.57,.74-.83,1.13Z"/><path class="d" d="M62.18,93.95c-.48-1.92-1.33-3.15-2.61-3.77-1.95-.93-4.86-.41-9.44,1.71-1.79,.83-3.86,1.62-6.06,2.47-4.32,1.66-9.05,3.49-12.48,5.91l-.49,1.13c3.39-2.69,8.54-4.67,13.2-6.47,2.21-.85,4.29-1.65,6.1-2.49,4.4-2.03,7.15-2.56,8.92-1.71,1.1,.53,1.84,1.62,2.28,3.36l.04,.14c.99,3.96,2.48,9.93,4.59,13.67,.11-.24,.21-.48,.32-.72-1.96-3.74-3.42-9.54-4.31-13.1l-.04-.14Z"/><path class="d" d="M77.38,75.06c-.72-.52-1.67-.6-2.83-.25-4.56,1.38-9.38,15.07-8.96,22.63,.17,3.04,.86,5.77,1.85,7.67,.11-.24,.21-.49,.32-.73-.82-1.8-1.4-4.27-1.55-6.98-.4-7.26,4.29-20.73,8.52-22.01,.99-.3,1.74-.25,2.29,.16,1,.73,1.31,2.52,1.42,4.46,.17-.39,.34-.78,.52-1.18-.19-1.63-.6-3.07-1.57-3.78Z"/><path class="d" d="M72.15,88.97c-2.18,2.09-2.44,6.49-1.79,9.59,.14-.25,.3-.5,.48-.75-.45-2.85-.12-6.6,1.74-8.39,.98-.94,2.41-.32,4.4,.54,.63,.27,1.31,.56,2.03,.83,.23-.14,.46-.28,.69-.41-.89-.3-1.72-.66-2.48-.98-2.04-.88-3.8-1.64-5.07-.42Z"/><path class="d" d="M48.85,154.13c-.1,.45-.12,.93-.04,1.44,.65,4.21,7.14,8.7,12.85,8.91,.2,0,.4,.01,.59,.01,2.6,0,4.43-.66,5.59-2.01,1.65-1.93,1.62-5.03,1.14-8.34h-.62c.48,3.2,.53,6.17-.98,7.94-1.11,1.3-2.96,1.88-5.69,1.79-5.84-.21-11.72-4.87-12.27-8.39-.07-.48-.04-.93,.07-1.34h-.64Z"/></g><path class="i" d="M21.68,145.5c-.49,0-.99-.1-1.47-.31-1.88-.81-2.74-2.99-1.93-4.87l25.12-57.96c.82-1.87,2.99-2.73,4.87-1.92,1.88,.81,2.74,2.99,1.92,4.87l-25.12,57.96c-.61,1.4-1.97,2.23-3.4,2.23ZM55.52,73.04l2.37-5.46c.81-1.88-.05-4.06-1.92-4.87-1.88-.81-4.06,.05-4.87,1.92l-2.37,5.46c-.81,1.88,.05,4.06,1.93,4.87,.48,.21,.98,.31,1.47,.31,1.43,0,2.79-.84,3.4-2.23Zm54.19,76.14v-14.32c0-2.05-1.66-3.7-3.7-3.7s-3.7,1.66-3.7,3.7v14.32c0,2.05,1.66,3.7,3.7,3.7s3.7-1.66,3.7-3.7Zm0-25.66v-2.93c0-2.05-1.66-3.7-3.7-3.7s-3.7,1.66-3.7,3.7v2.93c0,2.05,1.66,3.7,3.7,3.7s3.7-1.66,3.7-3.7Z"/><path class="j" d="M96.03,223.75c5.57,0,10.42-2.14,13.65-5.63-7,6.05-18.28-3.15-18.28-7.67v-24.87c0-9.86-6.62-12.88-11.31-12.88H25.99c-18.71,0-22.34-6.4-21.29-10.14-.93,2.74-1.49,5.5-1.49,6.26,0,9.28,7.48,17.53,18.31,17.53h56.72v21.14c0,9.28,7.74,16.24,17.79,16.24Z"/><g><path class="h" d="M9.4,95.97c4.97-1.51,8.58,2.74,8.58,2.74,0,0-.65,5.54-5.62,7.04-4.97,1.51-12.36-1.59-12.36-1.59,0,0,4.43-6.69,9.4-8.19Z"/><path class="f" d="M9.4,95.97c-4.97,1.51-9.4,8.19-9.4,8.19l17.98-5.45s-3.62-4.24-8.58-2.74Z"/><path class="k" d="M1.79,101.82c-.05,.06-.1,.11-.14,.17l1.5,1.1-3.04,.92c-.06,.09-.1,.14-.1,.14,0,0,.07,.03,.16,.07l3.04-.92-.63,1.75c.07,.02,.14,.04,.21,.06l.69-1.89,3.76-1.14-1.36,3.75c.07,.01,.14,.03,.22,.04l1.41-3.87,3.76-1.14-1.93,5.3c.08,0,.16,0,.24,0l1.95-5.37,3.76-1.14-2.11,5.81c.1-.04,.19-.09,.28-.13l2.09-5.76,2.43-.74c.01-.07,.02-.12,.02-.12,0,0-.03-.04-.08-.09l-2.43,.74-4.94-3.63c-.1,.02-.2,.03-.31,.05l4.98,3.66-3.76,1.14-4.61-3.38c-.07,.04-.13,.08-.2,.12l4.54,3.34-3.76,1.14-3.32-2.44c-.06,.05-.11,.1-.16,.15l3.22,2.36-3.76,1.14-1.62-1.19Z"/></g><g><path class="h" d="M126.41,113.49c1.54,4.95-2.67,8.6-2.67,8.6,0,0-5.54-.61-7.09-5.56-1.54-4.95,1.5-12.38,1.5-12.38,0,0,6.72,4.38,8.26,9.33Z"/><path class="f" d="M126.41,113.49c-1.54-4.96-8.26-9.33-8.26-9.33l5.59,17.94s4.22-3.65,2.67-8.6Z"/><path class="k" d="M120.5,105.93c-.06-.05-.12-.1-.17-.14l-1.09,1.51-.95-3.04c-.09-.06-.15-.1-.15-.1,0,0-.03,.07-.06,.16l.94,3.03-1.75-.62c-.02,.07-.04,.14-.06,.21l1.89,.67,1.17,3.75-3.76-1.33c-.01,.07-.02,.14-.04,.22l3.88,1.38,1.17,3.75-5.31-1.89c0,.08,0,.16,0,.24l5.39,1.91,1.17,3.75-5.83-2.07c.04,.1,.09,.19,.13,.28l5.78,2.05,.76,2.42c.07,.01,.12,.02,.12,.02,0,0,.04-.03,.09-.08l-.76-2.43,3.59-4.97c-.02-.1-.03-.2-.05-.31l-3.62,5.01-1.17-3.75,3.35-4.63c-.04-.07-.08-.13-.12-.2l-3.3,4.57-1.17-3.75,2.42-3.34c-.05-.06-.1-.11-.16-.16l-2.34,3.24-1.17-3.75,1.18-1.63Z"/></g><g><path class="h" d="M27.49,79.53c-2.97,4.25-8.44,3.16-8.44,3.16,0,0-2.91-4.75,.06-9.01,2.97-4.25,10.7-6.39,10.7-6.39,0,0,.65,7.99-2.32,12.25Z"/><path class="f" d="M27.49,79.53c2.97-4.25,2.32-12.25,2.32-12.25l-10.76,15.4s5.47,1.1,8.44-3.16Z"/><path class="k" d="M29.85,70.22c0-.07,0-.15,0-.22l-1.86,.06,1.82-2.61c0-.1-.01-.17-.01-.17,0,0-.07,.02-.17,.05l-1.82,2.61-.58-1.77c-.07,.03-.14,.06-.2,.08l.63,1.91-2.25,3.22-1.25-3.79c-.07,.04-.13,.07-.2,.11l1.29,3.91-2.25,3.22-1.76-5.36c-.06,.05-.12,.1-.18,.15l1.79,5.43-2.25,3.22-1.93-5.88c-.05,.09-.09,.19-.14,.28l1.92,5.82-1.45,2.08c.03,.06,.06,.11,.06,.11,0,0,.05,0,.12,.02l1.46-2.08,6.13-.2c.07-.08,.14-.15,.21-.23l-6.18,.21,2.25-3.22,5.71-.19c.03-.07,.05-.14,.08-.22l-5.63,.19,2.25-3.22,4.12-.13c.01-.08,.02-.15,.03-.22l-3.99,.13,2.25-3.22,2.01-.07Z"/></g><g><path class="h" d="M98.22,70.31c-.4,5.17-5.67,7-5.67,7,0,0-4.92-2.62-4.53-7.79,.4-5.17,5.97-10.94,5.97-10.94,0,0,4.62,6.55,4.22,11.73Z"/><path class="f" d="M98.22,70.31c.4-5.17-4.22-11.73-4.22-11.73l-1.44,18.73s5.27-1.83,5.67-7Z"/><path class="k" d="M95.53,61.09c-.03-.06-.07-.13-.1-.19l-1.57,1,.25-3.17c-.06-.09-.1-.14-.1-.14l-.12,.13-.25,3.17-1.4-1.23c-.04,.06-.09,.12-.13,.17l1.51,1.32-.3,3.92-3-2.63c-.04,.06-.08,.13-.12,.19l3.1,2.71-.3,3.92-4.24-3.72c-.03,.07-.05,.15-.08,.22l4.3,3.77-.3,3.92-4.65-4.08c0,.11,.01,.21,.02,.31l4.61,4.04-.2,2.53c.06,.04,.1,.06,.1,.06,0,0,.05-.02,.11-.04l.2-2.54,5.17-3.29c.02-.1,.05-.2,.07-.31l-5.22,3.32,.3-3.91,4.82-3.07c-.01-.08-.03-.15-.04-.23l-4.76,3.02,.3-3.92,3.48-2.21c-.03-.07-.06-.14-.09-.21l-3.37,2.14,.3-3.92,1.7-1.08Z"/></g><g><path class="h" d="M51.62,30.83c3.42,3.91,1.03,8.95,1.03,8.95,0,0-5.32,1.68-8.73-2.22-3.41-3.91-3.63-11.92-3.63-11.92,0,0,7.92,1.29,11.33,5.2Z"/><path class="f" d="M51.62,30.83c-3.41-3.91-11.33-5.2-11.33-5.2l12.36,14.15s2.38-5.04-1.03-8.95Z"/><path class="k" d="M43.15,26.3c-.07-.02-.15-.04-.21-.06l-.39,1.82-2.09-2.4c-.1-.02-.17-.03-.17-.03,0,0,0,.07,0,.17l2.09,2.39-1.85,.14c0,.07,.02,.14,.03,.21l2-.15,2.58,2.96-3.98,.3c.02,.07,.04,.14,.06,.22l4.11-.31,2.58,2.96-5.62,.42c.03,.07,.07,.14,.1,.21l5.7-.43,2.58,2.96-6.17,.46c.08,.07,.16,.14,.24,.2l6.11-.46,1.67,1.91c.07-.02,.12-.03,.12-.03,0,0,.02-.05,.05-.11l-1.67-1.91,1.28-6c-.06-.09-.11-.17-.17-.26l-1.29,6.05-2.58-2.96,1.19-5.59c-.06-.04-.13-.09-.19-.13l-1.17,5.51-2.58-2.96,.86-4.03c-.07-.03-.14-.06-.21-.09l-.83,3.91-2.58-2.96,.42-1.96Z"/></g><g><path class="h" d="M13.15,70.4c2.83,2.39,1.69,6.2,1.69,6.2,0,0-3.57,1.75-6.4-.63-2.83-2.39-3.84-8.02-3.84-8.02,0,0,5.72,.06,8.55,2.46Z"/><path class="f" d="M13.15,70.4c-2.83-2.39-8.55-2.46-8.55-2.46l10.23,8.66s1.14-3.81-1.69-6.2Z"/><path class="k" d="M6.7,68.11c-.05,0-.11-.01-.16-.02l-.08,1.32-1.73-1.47h-.13s.01,.05,.03,.12l1.73,1.47-1.29,.3s.03,.1,.04,.15l1.4-.32,2.14,1.81-2.78,.64s.04,.1,.06,.15l2.87-.66,2.14,1.81-3.92,.9s.06,.09,.1,.14l3.97-.91,2.14,1.81-4.3,.98c.06,.04,.13,.08,.19,.12l4.26-.98,1.38,1.17,.08-.03,.02-.08-1.38-1.17,.26-4.36c-.05-.06-.1-.11-.15-.17l-.26,4.4-2.14-1.81,.24-4.07s-.1-.05-.15-.07l-.24,4.01-2.14-1.81,.17-2.93c-.05-.02-.1-.02-.16-.04l-.17,2.85-2.14-1.81,.09-1.43Z"/></g><g><path class="h" d="M67.85,29.69c-3.29,1.69-6.37-.83-6.37-.83,0,0-.25-3.97,3.04-5.66,3.29-1.69,8.88-.46,8.88-.46,0,0-2.26,5.26-5.55,6.95Z"/><path class="f" d="M67.85,29.69c3.29-1.69,5.55-6.95,5.55-6.95l-11.93,6.12s3.08,2.52,6.37,.83Z"/><path class="k" d="M72.45,24.61s.05-.1,.08-.14l-1.19-.58,2.02-1.04,.05-.12s-.05,0-.12-.02l-2.02,1.03,.22-1.31s-.1,0-.15-.02l-.24,1.41-2.49,1.28,.48-2.81c-.05,0-.11,0-.16,0l-.49,2.9-2.49,1.28,.68-3.96c-.06,0-.11,.02-.17,.04l-.68,4.02-2.5,1.28,.74-4.35c-.06,.04-.12,.09-.18,.13l-.74,4.31-1.61,.83c0,.05,0,.09,0,.09,0,0,.03,.02,.07,.05l1.61-.83,3.93,1.92c.07-.02,.14-.05,.21-.07l-3.96-1.93,2.49-1.28,3.67,1.78s.08-.07,.12-.11l-3.61-1.76,2.49-1.28,2.64,1.29s.06-.09,.1-.13l-2.56-1.25,2.49-1.28,1.29,.63Z"/></g><g><path class="h" d="M99.08,84.37c-3.42-1.42-3.5-5.39-3.5-5.39,0,0,2.87-2.76,6.29-1.34,3.42,1.42,6.1,6.47,6.1,6.47,0,0-5.47,1.68-8.89,.26Z"/><path class="f" d="M99.08,84.37c3.42,1.42,8.89-.26,8.89-.26l-12.39-5.13s.08,3.98,3.5,5.39Z"/><path class="k" d="M105.93,84.58c.05,0,.11-.02,.16-.03l-.33-1.29,2.09,.87c.07-.02,.12-.04,.12-.04,0,0-.02-.04-.06-.11l-2.1-.87,1.14-.68s-.06-.08-.09-.13l-1.23,.73-2.59-1.07,2.45-1.45s-.07-.08-.1-.12l-2.53,1.5-2.59-1.07,3.46-2.05s-.09-.07-.13-.1l-3.5,2.08-2.59-1.07,3.8-2.25c-.07-.02-.14-.04-.21-.06l-3.76,2.23-1.67-.69s-.07,.06-.07,.06v.09l1.68,.7,1.08,4.24c.06,.04,.12,.08,.19,.11l-1.09-4.27,2.58,1.07,1.01,3.95c.05,0,.11,.02,.16,.02l-1-3.9,2.59,1.07,.73,2.85c.05,0,.1,0,.16,0l-.71-2.76,2.59,1.07,.35,1.39Z"/></g><g><path class="h" d="M133.2,125.58c-3.42-1.42-3.5-5.39-3.5-5.39,0,0,2.87-2.76,6.29-1.35,3.42,1.42,6.1,6.47,6.1,6.47,0,0-5.47,1.68-8.89,.27Z"/><path class="f" d="M133.2,125.58c3.42,1.42,8.89-.27,8.89-.27l-12.39-5.13s.08,3.98,3.5,5.39Z"/><path class="k" d="M140.05,125.8c.05,0,.11-.02,.16-.03l-.33-1.28,2.1,.87,.12-.04s-.03-.04-.06-.11l-2.09-.87,1.14-.68s-.06-.08-.09-.13l-1.23,.73-2.59-1.07,2.45-1.45s-.07-.08-.1-.12l-2.53,1.5-2.59-1.07,3.46-2.05s-.09-.07-.13-.1l-3.5,2.08-2.59-1.07,3.8-2.25c-.07-.02-.14-.04-.21-.06l-3.76,2.23-1.67-.69s-.07,.06-.07,.06c0,0,0,.04,0,.08l1.68,.7,1.08,4.24c.06,.04,.13,.08,.19,.11l-1.09-4.27,2.59,1.07,1.01,3.95c.05,0,.11,.02,.16,.02l-1-3.9,2.59,1.07,.73,2.85c.05,0,.11,0,.16,0l-.71-2.76,2.59,1.07,.35,1.39Z"/></g><g><path class="h" d="M11.88,83.58c.58,2.92-2.06,4.75-2.06,4.75,0,0-3.13-.69-3.7-3.62-.57-2.92,1.62-6.97,1.62-6.97,0,0,3.57,2.92,4.14,5.84Z"/><path class="f" d="M11.88,83.58c-.57-2.92-4.14-5.84-4.14-5.84l2.08,10.59s2.63-1.83,2.06-4.75Z"/><path class="k" d="M8.97,78.9s-.06-.06-.09-.09l-.72,.79-.35-1.79s-.08-.06-.08-.06c0,0-.02,.03-.05,.09l.35,1.79-.96-.46s-.03,.08-.05,.12l1.04,.5,.44,2.21-2.06-.99s-.02,.08-.04,.12l2.13,1.03,.44,2.21-2.92-1.41s0,.09-.01,.14l2.96,1.42,.44,2.22-3.2-1.54c.02,.06,.04,.11,.06,.17l3.17,1.53,.28,1.43s.07,.02,.07,.02c0,0,.02-.02,.06-.04l-.28-1.43,2.36-2.61c0-.06,0-.12,0-.18l-2.38,2.64-.43-2.21,2.19-2.44s-.04-.08-.06-.12l-2.17,2.41-.44-2.21,1.58-1.75s-.05-.07-.08-.1l-1.54,1.71-.44-2.21,.77-.86Z"/></g><g><path class="h" d="M58.78,23.66c1.14,2.76-1.08,5.06-1.08,5.06,0,0-3.2-.06-4.34-2.82-1.14-2.75,.22-7.16,.22-7.16,0,0,4.07,2.16,5.21,4.91Z"/><path class="f" d="M58.78,23.66c-1.14-2.75-5.21-4.91-5.21-4.91l4.13,9.97s2.22-2.31,1.08-5.06Z"/><path class="k" d="M55.01,19.64s-.07-.05-.1-.07l-.55,.92-.7-1.69c-.06-.03-.09-.05-.09-.05,0,0-.01,.04-.03,.1l.7,1.69-1.04-.26s-.01,.08-.02,.12l1.12,.29,.86,2.09-2.22-.57s0,.09-.01,.13l2.29,.59,.86,2.09-3.14-.81s.01,.09,.02,.14l3.18,.81,.86,2.09-3.44-.88c.03,.06,.06,.1,.09,.16l3.41,.88,.56,1.35s.07,0,.07,0l.04-.05-.56-1.35,1.8-3.03c-.01-.06-.03-.12-.05-.18l-1.81,3.05-.86-2.08,1.67-2.82s-.05-.07-.08-.11l-1.65,2.79-.86-2.09,1.21-2.03s-.06-.05-.1-.09l-1.17,1.97-.86-2.09,.59-.99Z"/></g><g><path class="h" d="M104.93,76.96c-2.96-.39-3.85-3.46-3.85-3.46,0,0,1.65-2.75,4.61-2.36,2.96,.39,6.09,3.75,6.09,3.75,0,0-3.9,2.46-6.85,2.07Z"/><path class="f" d="M104.93,76.96c2.95,.39,6.85-2.07,6.85-2.07l-10.7-1.39s.89,3.08,3.85,3.46Z"/><path class="k" d="M110.29,75.7s.08-.04,.11-.05l-.52-.93,1.81,.24,.08-.06-.07-.07-1.81-.24,.74-.77s-.06-.05-.09-.08l-.8,.83-2.24-.29,1.6-1.64s-.07-.05-.1-.07l-1.65,1.69-2.24-.29,2.26-2.32s-.08-.04-.12-.05l-2.29,2.35-2.24-.29,2.48-2.54c-.06,0-.12,0-.18,0l-2.46,2.52-1.45-.19s-.04,.06-.04,.06c0,0,.01,.03,.03,.07l1.45,.19,1.73,3.07c.06,.02,.11,.03,.17,.05l-1.74-3.1,2.23,.3,1.61,2.86s.09,0,.13-.02l-1.59-2.82,2.24,.29,1.16,2.06s.08-.03,.12-.04l-1.13-2,2.24,.29,.57,1.01Z"/></g><g><path class="h" d="M137.41,110.9c-2.07,2.15-5.07,1.04-5.07,1.04,0,0-1.23-2.96,.84-5.11,2.07-2.15,6.64-2.67,6.64-2.67,0,0-.34,4.59-2.41,6.74Z"/><path class="f" d="M137.41,110.9c2.07-2.15,2.41-6.74,2.41-6.74l-7.48,7.78s3,1.11,5.07-1.04Z"/><path class="k" d="M139.58,105.83l.02-.12-1.06-.13,1.27-1.32c0-.06,0-.1,0-.1,0,0-.04,0-.1,.01l-1.27,1.32-.17-1.05s-.08,.02-.12,.03l.19,1.14-1.56,1.63-.37-2.26s-.08,.03-.12,.04l.38,2.34-1.56,1.63-.52-3.2s-.08,.05-.12,.07l.53,3.24-1.56,1.63-.57-3.51c-.04,.05-.07,.1-.11,.15l.57,3.47-1.01,1.05s.02,.07,.02,.07c0,0,.03,0,.07,.02l1.01-1.05,3.49,.43s.09-.07,.14-.11l-3.53-.44,1.56-1.62,3.25,.4s.04-.08,.07-.12l-3.21-.39,1.56-1.63,2.35,.29s.02-.08,.04-.12l-2.28-.28,1.56-1.63,1.15,.14Z"/></g><g><path class="h" d="M68.24,133.33c2.89,.75,3.38,3.92,3.38,3.92,0,0-1.98,2.52-4.87,1.76-2.88-.75-5.57-4.49-5.57-4.49,0,0,4.18-1.95,7.06-1.19Z"/><path class="f" d="M68.24,133.33c-2.88-.76-7.06,1.19-7.06,1.19l10.44,2.73s-.5-3.17-3.38-3.92Z"/><path class="k" d="M62.76,133.92s-.08,.03-.12,.04l.4,.99-1.77-.46-.09,.04s.02,.03,.06,.08l1.77,.46-.83,.67s.06,.06,.08,.1l.9-.72,2.19,.57-1.79,1.43s.06,.06,.09,.09l1.85-1.47,2.18,.57-2.53,2.02s.08,.05,.12,.07l2.56-2.04,2.18,.57-2.78,2.21c.06,.01,.12,.02,.18,.02l2.76-2.19,1.41,.37s.05-.05,.05-.05l-.02-.07-1.41-.37-1.33-3.26c-.06-.03-.11-.05-.17-.07l1.34,3.29-2.18-.57-1.24-3.03s-.09,0-.14,0l1.23,3-2.19-.57-.89-2.19s-.08,.02-.13,.02l.87,2.12-2.18-.57-.44-1.07Z"/></g><g><path class="h" d="M76.93,129.19c-1.64,1.87-4.19,1.06-4.19,1.06,0,0-1.14-2.42,.5-4.29,1.64-1.87,5.44-2.48,5.44-2.48,0,0-.11,3.85-1.75,5.72Z"/><path class="f" d="M76.93,129.19c1.64-1.87,1.75-5.72,1.75-5.72l-5.94,6.78s2.55,.81,4.19-1.06Z"/><path class="k" d="M78.55,124.88s.01-.07,.02-.1l-.89-.07,1.01-1.15c0-.05,0-.09,0-.09l-.08,.02-1,1.15-.19-.87s-.07,.02-.1,.03l.2,.94-1.24,1.42-.4-1.87s-.06,.03-.1,.04l.41,1.93-1.24,1.42-.56-2.65s-.06,.04-.1,.06l.57,2.68-1.24,1.42-.61-2.9s-.06,.09-.08,.13l.61,2.88-.8,.92s.02,.05,.02,.05h.06l.8-.9,2.93,.23s.08-.06,.11-.1l-2.96-.23,1.24-1.41,2.73,.21s.03-.07,.05-.1l-2.7-.2,1.24-1.42,1.97,.15s.02-.07,.03-.1l-1.91-.15,1.24-1.42,.96,.08Z"/></g></g></g></g></g></svg>