<?xml version="1.0" encoding="UTF-8"?><svg xmlns="http://www.w3.org/2000/svg" viewBox="0 0 13.87 17.57"><defs><style>.d{fill:#316631;}.e{fill:#377337;}.f{fill:#264f26;}</style></defs><g id="a"/><g id="b"><g id="c"><g><g><path class="e" d="M3.71,1.62C.1,3.92,.81,8.46,.81,8.46c0,0,3.82,2.56,7.42,.26C11.84,6.42,13.87,.14,13.87,.14,13.87,.14,7.31-.68,3.71,1.62Z"/><path class="d" d="M3.71,1.62C7.31-.68,13.87,.14,13.87,.14L.81,8.46S.1,3.92,3.71,1.62Z"/><path class="f" d="M11.45,0c.06,0,.12,0,.18,0l-.11,1.53L13.72,.12l.14,.02s-.02,.05-.05,.13l-2.21,1.41,1.44,.54c-.02,.05-.05,.11-.08,.17l-1.55-.59-2.73,1.74,3.07,1.16c-.03,.05-.06,.11-.09,.16l-3.17-1.2-2.73,1.74,4.35,1.63s-.09,.1-.13,.15l-4.41-1.66-2.73,1.74,4.77,1.79c-.08,.04-.16,.07-.24,.11l-4.72-1.78-1.76,1.12c-.05-.03-.09-.05-.09-.05,0,0,0-.04,0-.1l1.76-1.12,.38-5.03c.07-.06,.12-.11,.2-.17l-.38,5.08,2.72-1.74,.36-4.69c.06-.02,.12-.04,.19-.06l-.36,4.63,2.73-1.74,.25-3.38c.07-.01,.12-.01,.18-.02l-.25,3.28,2.73-1.74L11.45,0Z"/></g><g><path class="e" d="M5.22,11.39c-3-.95-5.22,1.6-5.22,1.6,0,0,.36,3.36,3.36,4.3,3,.95,7.5-.88,7.5-.88,0,0-2.63-4.08-5.63-5.03Z"/><path class="d" d="M5.22,11.39c3,.95,5.63,5.03,5.63,5.03L0,13s2.22-2.55,5.22-1.6Z"/><path class="f" d="M9.79,14.99s.06,.07,.08,.1l-.91,.66,1.84,.58c.04,.05,.06,.09,.06,.09,0,0-.04,.01-.1,.03l-1.84-.57,.37,1.06s-.09,.02-.13,.03l-.4-1.15-2.27-.72,.8,2.28s-.09,.02-.13,.02l-.83-2.36-2.27-.72,1.13,3.22s-.1,0-.15,0l-1.14-3.27-2.27-.71,1.24,3.53c-.06-.03-.11-.05-.17-.08l-1.23-3.5L.01,13.07s-.01-.08-.01-.08c0,0,.02-.02,.06-.05l1.46,.46,3.01-2.16c.06,0,.12,.02,.19,.03l-3.04,2.19,2.26,.71,2.82-2.01s.08,.05,.12,.08l-2.78,1.99,2.27,.72,2.02-1.46s.07,.07,.1,.09l-1.97,1.41,2.27,.72,.99-.71Z"/></g></g></g></g></svg>