<?xml version="1.0" encoding="UTF-8"?><svg xmlns="http://www.w3.org/2000/svg" viewBox="0 0 148.99 14.42"><defs><style>.d{fill:#7a4e2b;}</style></defs><g id="a"/><g id="b"><g id="c"><g><g><path class="d" d="M5.58,3.02c-.25,0-.43,.09-.57,.26-.13,.17-.2,.42-.2,.75v2.39c-.3-.33-.62-.58-.94-.74-.32-.16-.71-.24-1.18-.24-.81,0-1.46,.28-1.95,.85-.49,.57-.74,1.36-.74,2.37,0,.48,.06,.92,.19,1.34,.12,.41,.31,.77,.55,1.07,.24,.3,.53,.54,.86,.7,.33,.16,.69,.25,1.08,.25,.29,0,.56-.04,.81-.12,.25-.08,.48-.2,.69-.36,.21-.16,.43-.36,.64-.61v.16c0,.3,.07,.53,.22,.69,.14,.16,.33,.24,.55,.24s.41-.08,.55-.23c.14-.15,.21-.38,.21-.69V3.94c0-.3-.07-.54-.2-.69-.13-.16-.32-.23-.57-.23Zm-1.06,6.84c-.14,.3-.33,.53-.56,.68-.24,.15-.5,.22-.78,.22s-.54-.08-.78-.24c-.24-.15-.42-.39-.56-.7-.14-.31-.21-.68-.21-1.12,0-.41,.06-.78,.19-1.1,.13-.31,.31-.55,.54-.72,.23-.17,.5-.25,.8-.25s.55,.08,.79,.24c.24,.17,.43,.4,.57,.71,.14,.31,.21,.68,.21,1.11,0,.46-.07,.84-.21,1.15Z"/><path class="d" d="M12.95,8.94c.23-.12,.35-.38,.35-.79,0-.44-.11-.87-.34-1.29s-.56-.77-1.02-1.04c-.45-.27-.99-.4-1.63-.4-.49,0-.93,.08-1.33,.23-.4,.16-.74,.38-1.01,.67-.27,.29-.48,.64-.62,1.05-.14,.41-.21,.85-.21,1.33,0,1.02,.29,1.82,.87,2.42,.58,.59,1.39,.89,2.43,.89,.46,0,.86-.06,1.21-.18,.35-.12,.64-.27,.87-.45,.23-.18,.4-.37,.52-.56,.11-.2,.17-.37,.17-.51,0-.17-.05-.29-.15-.38-.1-.09-.24-.14-.4-.14-.15,0-.27,.04-.36,.11-.2,.19-.37,.34-.49,.45-.12,.11-.26,.21-.41,.31-.15,.1-.31,.17-.47,.21-.16,.04-.34,.07-.53,.07-.29,0-.55-.07-.79-.21-.24-.14-.43-.36-.58-.64-.14-.28-.22-.61-.22-.97h3.17c.42,0,.75-.06,.99-.18Zm-4.15-.74c.05-.55,.21-.96,.47-1.24,.26-.28,.59-.42,.99-.42s.77,.14,1.03,.41c.26,.28,.41,.69,.45,1.24h-2.94Z"/><path class="d" d="M18.37,8.5c-.32-.17-.73-.32-1.23-.44-.42-.1-.76-.19-1-.26-.24-.07-.43-.16-.58-.27s-.21-.25-.21-.42c0-.19,.1-.34,.29-.46,.2-.13,.44-.19,.73-.19s.51,.05,.68,.14c.17,.09,.31,.22,.43,.38,.15,.19,.28,.33,.4,.43,.12,.1,.26,.14,.42,.14,.23,0,.41-.06,.53-.18,.12-.12,.19-.27,.19-.46,0-.17-.06-.35-.18-.52-.12-.18-.29-.34-.51-.49-.22-.15-.5-.26-.84-.35-.33-.09-.71-.13-1.13-.13-.54,0-.99,.08-1.37,.26-.38,.17-.66,.4-.86,.69-.19,.29-.29,.6-.29,.92,0,.36,.11,.67,.32,.92,.21,.25,.49,.45,.84,.6,.35,.15,.8,.3,1.36,.43,.49,.12,.85,.24,1.06,.38,.22,.13,.32,.34,.32,.62,0,.19-.1,.35-.31,.5-.21,.14-.47,.22-.8,.22-.4,0-.71-.07-.95-.21-.23-.14-.43-.36-.6-.65-.08-.15-.17-.27-.26-.35-.09-.08-.22-.12-.39-.12-.2,0-.36,.06-.48,.19-.13,.12-.19,.28-.19,.46,0,.27,.1,.54,.3,.8,.2,.27,.5,.49,.92,.67,.42,.18,.91,.27,1.5,.27s1.12-.08,1.55-.25c.43-.16,.75-.41,.96-.72,.22-.32,.33-.7,.33-1.15,0-.3-.08-.56-.25-.79-.16-.23-.41-.43-.72-.6Z"/><path class="d" d="M20.98,5.43c-.24,0-.43,.08-.58,.24-.15,.16-.22,.4-.22,.72v4.63c0,.32,.07,.56,.22,.73,.15,.17,.34,.26,.58,.26s.43-.08,.59-.25c.15-.17,.23-.41,.23-.74V6.35c0-.29-.08-.52-.23-.68-.15-.16-.35-.24-.59-.24Z"/><path class="d" d="M21,3.09c-.22,0-.41,.07-.57,.22-.16,.15-.25,.34-.25,.57,0,.25,.08,.45,.24,.59,.16,.14,.35,.21,.58,.21s.41-.07,.56-.21c.16-.14,.24-.34,.24-.58s-.08-.45-.24-.59c-.16-.13-.35-.2-.56-.2Z"/><path class="d" d="M28.12,5.43c-.22,0-.4,.08-.54,.23-.14,.15-.21,.37-.21,.65v.22c-.29-.38-.6-.65-.94-.83-.34-.18-.73-.26-1.19-.26-.38,0-.74,.07-1.06,.2-.32,.14-.6,.34-.85,.61-.24,.27-.43,.6-.57,.99-.13,.39-.2,.83-.2,1.32,0,.65,.11,1.23,.33,1.73,.21,.5,.53,.88,.93,1.16,.41,.28,.88,.42,1.42,.42,.45,0,.84-.09,1.17-.27,.33-.18,.61-.45,.86-.8,0,.53-.02,.92-.04,1.16-.02,.24-.07,.46-.16,.67-.09,.21-.25,.37-.49,.49-.23,.12-.56,.18-.98,.18-.21,0-.39-.02-.54-.06-.16-.04-.29-.09-.41-.17-.11-.08-.22-.17-.31-.28-.09-.11-.18-.22-.27-.32-.18-.21-.39-.31-.62-.31-.19,0-.35,.06-.49,.19-.13,.12-.2,.28-.2,.48,0,.26,.12,.52,.36,.76,.24,.25,.58,.45,1.02,.61,.44,.15,.94,.23,1.5,.23,.61,0,1.12-.06,1.53-.18,.41-.12,.74-.31,.99-.56,.25-.25,.44-.57,.55-.96,.12-.39,.17-.85,.17-1.39V6.62c0-.38-.05-.68-.16-.88-.1-.2-.31-.3-.62-.3Zm-1.03,4.37c-.15,.29-.35,.51-.59,.65-.24,.14-.49,.22-.76,.22-.46,0-.83-.17-1.11-.5-.29-.34-.43-.83-.43-1.49s.14-1.15,.42-1.5c.28-.35,.65-.53,1.11-.53s.86,.18,1.15,.55c.29,.37,.44,.88,.44,1.54,0,.42-.08,.77-.23,1.06Z"/><path class="d" d="M35.47,6.49c-.16-.34-.42-.6-.75-.79-.34-.19-.72-.28-1.15-.28s-.83,.09-1.17,.26c-.34,.18-.65,.45-.93,.83v-.2c0-.19-.04-.36-.1-.49-.07-.13-.16-.23-.28-.3-.12-.07-.24-.1-.39-.1-.23,0-.42,.08-.55,.23-.13,.15-.2,.38-.2,.69v4.68c0,.32,.08,.56,.22,.73,.15,.17,.34,.26,.58,.26s.44-.08,.59-.25c.15-.16,.23-.41,.23-.74v-2.03c0-.66,.04-1.11,.12-1.35,.11-.3,.29-.54,.52-.71,.24-.17,.5-.26,.79-.26,.44,0,.74,.14,.89,.42,.15,.28,.22,.69,.22,1.23v2.7c0,.32,.07,.56,.23,.73,.15,.17,.35,.26,.59,.26s.43-.08,.58-.25c.15-.17,.22-.41,.22-.74v-3.02c0-.36-.02-.65-.05-.88-.03-.23-.1-.44-.21-.64Z"/><path class="d" d="M42.31,8.94c.23-.12,.35-.38,.35-.79,0-.44-.11-.87-.34-1.29-.22-.42-.56-.77-1.02-1.04-.45-.27-1-.4-1.63-.4-.49,0-.93,.08-1.33,.23-.4,.16-.73,.38-1.01,.67-.27,.29-.48,.64-.62,1.05-.14,.41-.21,.85-.21,1.33,0,1.02,.29,1.82,.87,2.42,.58,.59,1.39,.89,2.43,.89,.46,0,.86-.06,1.21-.18,.35-.12,.64-.27,.87-.45,.23-.18,.4-.37,.52-.56,.12-.2,.17-.37,.17-.51,0-.17-.05-.29-.15-.38-.1-.09-.24-.14-.4-.14-.15,0-.27,.04-.36,.11-.2,.19-.37,.34-.49,.45-.13,.11-.27,.21-.42,.31-.15,.1-.31,.17-.46,.21-.16,.04-.34,.07-.53,.07-.29,0-.55-.07-.79-.21-.24-.14-.43-.36-.58-.64-.14-.28-.22-.61-.22-.97h3.17c.42,0,.75-.06,.98-.18Zm-4.15-.74c.06-.55,.21-.96,.47-1.24,.26-.28,.59-.42,1-.42s.76,.14,1.02,.41c.26,.28,.41,.69,.45,1.24h-2.94Z"/><path class="d" d="M48.7,3.02c-.25,0-.44,.09-.57,.26-.13,.17-.2,.42-.2,.75v2.39c-.3-.33-.62-.58-.94-.74-.32-.16-.71-.24-1.18-.24-.81,0-1.46,.28-1.95,.85-.49,.57-.74,1.36-.74,2.37,0,.48,.06,.92,.19,1.34s.31,.77,.55,1.07c.24,.3,.53,.54,.86,.7,.33,.16,.69,.25,1.08,.25,.29,0,.56-.04,.81-.12,.25-.08,.48-.2,.69-.36,.21-.16,.43-.36,.64-.61v.16c0,.3,.07,.53,.22,.69,.14,.16,.33,.24,.55,.24s.41-.08,.55-.23,.21-.38,.21-.69V3.94c0-.3-.06-.54-.2-.69-.13-.16-.32-.23-.57-.23Zm-1.07,6.84c-.14,.3-.33,.53-.56,.68-.23,.15-.49,.22-.78,.22s-.54-.08-.78-.24c-.24-.15-.43-.39-.56-.7-.14-.31-.21-.68-.21-1.12,0-.41,.06-.78,.19-1.1,.13-.31,.31-.55,.54-.72,.23-.17,.5-.25,.8-.25s.55,.08,.79,.24c.24,.17,.43,.4,.57,.71,.14,.31,.21,.68,.21,1.11,0,.46-.07,.84-.21,1.15Z"/><path class="d" d="M58.08,5.82c-.41-.26-.88-.38-1.42-.38-.47,0-.86,.08-1.17,.25-.32,.17-.63,.41-.93,.73V3.94c0-.3-.07-.53-.2-.69-.13-.16-.33-.24-.58-.24s-.42,.09-.55,.25c-.13,.17-.2,.42-.2,.74v7.08c0,.3,.07,.54,.2,.69,.14,.16,.32,.23,.55,.23s.41-.08,.56-.23c.15-.16,.22-.39,.22-.69v-.16c.18,.21,.32,.36,.43,.46,.11,.1,.24,.2,.39,.3,.15,.1,.34,.18,.56,.23,.22,.06,.45,.09,.7,.09,.41,0,.78-.08,1.12-.25,.34-.16,.62-.4,.86-.7,.24-.3,.42-.65,.54-1.06s.19-.86,.19-1.35c0-.66-.11-1.24-.34-1.72-.22-.48-.54-.85-.94-1.11Zm-.79,4.41c-.29,.35-.65,.53-1.05,.53-.48,0-.87-.17-1.16-.52-.3-.35-.44-.84-.44-1.49,0-.44,.07-.82,.21-1.13,.14-.32,.33-.56,.57-.73,.24-.17,.52-.25,.83-.25s.56,.08,.79,.25c.22,.17,.4,.41,.52,.71,.12,.31,.18,.68,.18,1.1,0,.66-.15,1.17-.44,1.52Z"/><path class="d" d="M65.02,5.53c-.11-.07-.23-.1-.35-.1-.17,0-.3,.03-.39,.09-.09,.06-.18,.17-.26,.34-.08,.17-.18,.41-.28,.7l-1.3,3.71-1.37-3.99c-.09-.28-.2-.49-.31-.64-.12-.15-.29-.22-.53-.22-.13,0-.26,.04-.39,.11-.12,.07-.22,.17-.29,.29-.07,.12-.11,.25-.11,.38,0,.13,.06,.34,.18,.63l1.99,5.02-.15,.36c-.11,.27-.21,.47-.29,.6-.09,.14-.18,.23-.29,.29-.11,.05-.25,.08-.44,.08-.07,0-.16-.01-.27-.04-.08-.02-.17-.04-.26-.04-.22,0-.39,.05-.5,.15-.11,.1-.17,.25-.17,.43,0,.27,.12,.46,.36,.56,.24,.1,.59,.15,1.07,.15s.87-.07,1.16-.22c.29-.15,.52-.36,.69-.64,.17-.28,.35-.66,.54-1.15l2.11-5.53c.05-.14,.09-.28,.13-.42,.04-.14,.06-.25,.08-.32,0-.12-.03-.24-.09-.35-.06-.11-.15-.2-.26-.26Z"/></g><g><g><path class="d" d="M87.42,3.01c-.53,0-.96,.07-1.26,.2-.31,.14-.53,.36-.65,.65-.13,.3-.19,.7-.19,1.21v.49h-.39c-.54,0-.81,.19-.81,.58,0,.17,.06,.31,.2,.42,.13,.11,.31,.16,.56,.16h.45v4.29c0,.32,.07,.56,.22,.73,.16,.17,.35,.25,.58,.25,.24,0,.44-.08,.59-.25,.16-.17,.23-.41,.23-.73V6.74h.4c.29,0,.52-.04,.68-.11,.17-.07,.25-.24,.25-.5,0-.37-.31-.56-.93-.56h-.4v-.39c0-.32,.04-.57,.12-.74,.08-.17,.27-.26,.56-.26,.11,0,.24,.01,.39,.04,.15,.03,.27,.04,.33,.04,.13,0,.25-.05,.35-.16,.1-.11,.15-.23,.15-.38,0-.47-.47-.7-1.42-.7Z"/><path class="d" d="M92.58,5.68c-.32-.17-.65-.26-.99-.26s-.61,.08-.82,.26c-.2,.17-.4,.42-.59,.75-.01-.33-.08-.58-.2-.75-.12-.17-.31-.26-.58-.26-.53,0-.79,.37-.79,1.09v4.51c0,.32,.08,.57,.23,.73,.15,.17,.34,.25,.58,.25s.43-.08,.59-.25c.15-.16,.23-.41,.23-.74v-1.36c0-.49,.01-.9,.04-1.24,.03-.34,.09-.63,.17-.88,.08-.24,.2-.42,.35-.55,.15-.12,.34-.19,.58-.19,.17,0,.37,.04,.6,.11,.22,.07,.37,.11,.43,.11,.16,0,.3-.06,.44-.19,.13-.13,.2-.29,.2-.49,0-.28-.16-.51-.48-.68Z"/><path class="d" d="M98.67,8.94c.23-.12,.35-.38,.35-.79,0-.44-.11-.87-.34-1.3-.22-.42-.56-.77-1.02-1.03-.45-.27-1-.4-1.63-.4-.49,0-.93,.08-1.33,.23-.4,.16-.73,.38-1.01,.68-.27,.3-.48,.64-.62,1.05-.15,.41-.22,.85-.22,1.33,0,1.02,.29,1.82,.87,2.42,.58,.59,1.39,.89,2.43,.89,.45,0,.86-.06,1.21-.18s.64-.27,.87-.45c.23-.18,.4-.37,.52-.57,.11-.19,.17-.37,.17-.51,0-.17-.05-.29-.15-.38-.1-.09-.24-.14-.41-.14-.15,0-.27,.04-.35,.11-.2,.19-.37,.34-.49,.45-.13,.11-.26,.22-.41,.31-.15,.1-.31,.17-.47,.21-.16,.05-.34,.07-.53,.07-.29,0-.55-.07-.79-.21-.24-.14-.43-.36-.58-.63-.14-.28-.22-.61-.22-.97h3.17c.42,0,.75-.06,.98-.18Zm-4.16-.74c.06-.55,.21-.96,.47-1.24,.26-.28,.59-.42,.99-.42,.43,0,.76,.13,1.03,.41,.26,.27,.4,.69,.45,1.24h-2.94Z"/><path class="d" d="M105.41,8.94c.23-.12,.35-.38,.35-.79,0-.44-.12-.87-.34-1.3-.22-.42-.56-.77-1.01-1.03-.46-.27-1.01-.4-1.64-.4-.49,0-.93,.08-1.33,.23-.4,.16-.74,.38-1.01,.68-.27,.3-.48,.64-.62,1.05-.14,.41-.22,.85-.22,1.33,0,1.02,.29,1.82,.87,2.42,.58,.59,1.39,.89,2.43,.89,.45,0,.86-.06,1.21-.18,.35-.12,.64-.27,.87-.45,.23-.18,.41-.37,.52-.57,.12-.19,.17-.37,.17-.51,0-.17-.05-.29-.15-.38-.1-.09-.24-.14-.41-.14-.15,0-.27,.04-.36,.11-.2,.19-.37,.34-.49,.45-.13,.11-.26,.22-.42,.31-.15,.1-.31,.17-.47,.21-.16,.05-.34,.07-.53,.07-.29,0-.55-.07-.79-.21-.24-.14-.43-.36-.58-.63-.14-.28-.22-.61-.22-.97h3.17c.42,0,.75-.06,.98-.18Zm-4.15-.74c.05-.55,.21-.96,.47-1.24,.26-.28,.59-.42,1-.42s.76,.13,1.03,.41c.26,.27,.41,.69,.45,1.24h-2.94Z"/><path class="d" d="M111.42,5.82c-.42-.26-.88-.39-1.38-.39-.41,0-.79,.09-1.11,.27-.33,.18-.65,.45-.95,.83v-.19c0-.3-.07-.52-.22-.68-.14-.16-.33-.23-.56-.23s-.42,.08-.55,.23c-.13,.15-.2,.38-.2,.69v6.99c0,.36,.05,.62,.14,.81,.1,.18,.3,.28,.61,.28,.52,0,.78-.36,.78-1.07v-2.43c.29,.36,.59,.63,.9,.82,.31,.19,.7,.28,1.17,.28,.38,0,.74-.08,1.08-.23,.33-.15,.62-.37,.87-.65,.25-.28,.44-.63,.58-1.05,.14-.42,.21-.88,.21-1.38,0-.68-.12-1.26-.37-1.76-.24-.49-.57-.87-.99-1.13Zm-.48,4c-.14,.31-.32,.55-.55,.7-.23,.15-.48,.23-.75,.23-.46,0-.83-.18-1.13-.54-.31-.36-.46-.86-.46-1.5,0-.69,.16-1.2,.46-1.56,.31-.35,.68-.53,1.13-.53,.28,0,.54,.08,.77,.25,.23,.16,.41,.4,.54,.71,.13,.31,.2,.67,.2,1.1s-.07,.82-.21,1.13Z"/><path class="d" d="M114.39,5.42c-.24,0-.43,.08-.58,.24-.14,.16-.22,.4-.22,.72v4.64c0,.31,.08,.55,.22,.73,.15,.17,.34,.25,.58,.25s.43-.08,.59-.25c.15-.16,.23-.41,.23-.73V6.34c0-.29-.07-.51-.23-.68-.16-.16-.35-.24-.59-.24Z"/><path class="d" d="M114.41,3.08c-.22,0-.41,.08-.57,.22-.17,.15-.25,.34-.25,.57,0,.25,.08,.45,.24,.59,.16,.14,.35,.21,.58,.21s.41-.07,.57-.21,.23-.33,.23-.58-.08-.45-.24-.59c-.16-.13-.35-.2-.56-.2Z"/><path class="d" d="M121.75,10.45l-1.66-2.61,.86-.79c.44-.39,.66-.71,.66-.95,0-.19-.07-.35-.2-.48-.14-.13-.3-.19-.51-.19-.17,0-.31,.04-.43,.13-.12,.09-.29,.25-.52,.49l-1.82,1.91v-3.93c0-.33-.07-.58-.22-.75-.15-.17-.35-.26-.59-.26s-.46,.09-.6,.28c-.14,.19-.21,.46-.21,.82v6.91c0,.32,.07,.57,.22,.73,.14,.17,.34,.25,.59,.25,.21,0,.4-.08,.57-.25,.16-.17,.24-.41,.24-.72v-1.29l.88-.83,1.43,2.35c.18,.28,.33,.47,.44,.58,.1,.11,.26,.16,.46,.16,.22,0,.41-.07,.55-.22,.14-.15,.21-.35,.21-.61,0-.09-.03-.19-.08-.29-.05-.1-.14-.25-.26-.44Z"/><path class="d" d="M123.94,10.23c-.25,0-.46,.09-.63,.26-.17,.17-.26,.38-.26,.62,0,.29,.09,.51,.27,.66,.18,.16,.39,.24,.63,.24s.44-.08,.62-.24c.18-.16,.26-.38,.26-.66,0-.24-.09-.46-.26-.63-.18-.17-.39-.26-.64-.26Z"/><path class="d" d="M131.33,9.3c-.16,0-.3,.05-.42,.16-.12,.1-.22,.24-.32,.43-.18,.31-.38,.54-.62,.69-.23,.15-.51,.22-.83,.22-.24,0-.46-.04-.67-.14-.2-.09-.37-.23-.52-.41-.14-.18-.25-.4-.33-.65-.07-.26-.11-.54-.11-.84,0-.65,.14-1.16,.44-1.53,.29-.38,.68-.56,1.16-.56,.33,0,.61,.08,.82,.23,.22,.15,.42,.38,.62,.67,.11,.16,.21,.27,.3,.34,.09,.07,.2,.1,.34,.1,.2,0,.38-.07,.52-.2,.14-.13,.21-.3,.21-.49s-.06-.4-.19-.62c-.13-.22-.31-.42-.55-.62-.25-.19-.54-.35-.89-.47-.35-.12-.74-.19-1.16-.19-.68,0-1.26,.14-1.75,.42-.48,.28-.86,.67-1.11,1.18-.26,.51-.39,1.1-.39,1.77,0,.98,.28,1.76,.84,2.35,.56,.58,1.34,.88,2.35,.88,.47,0,.9-.06,1.27-.19,.37-.12,.69-.29,.93-.5,.25-.21,.43-.43,.55-.66,.12-.23,.18-.45,.18-.65,0-.17-.07-.33-.2-.48-.13-.15-.29-.23-.49-.23Z"/><path class="d" d="M138.14,6.34c-.29-.29-.63-.52-1.03-.68-.4-.16-.85-.24-1.34-.24s-.92,.08-1.33,.23c-.4,.16-.74,.38-1.02,.67-.28,.29-.5,.64-.65,1.04-.15,.41-.22,.86-.22,1.35s.08,.93,.22,1.33c.15,.4,.37,.75,.66,1.05,.29,.29,.62,.52,1.02,.68,.39,.16,.84,.24,1.33,.24s.94-.08,1.34-.23c.39-.16,.74-.38,1.02-.68,.29-.29,.5-.64,.66-1.05,.15-.41,.22-.86,.22-1.34s-.08-.93-.22-1.34c-.15-.4-.37-.75-.65-1.04Zm-1.19,3.91c-.29,.37-.68,.56-1.17,.56-.32,0-.6-.09-.85-.25-.24-.17-.42-.41-.55-.73-.13-.32-.19-.68-.19-1.11s.07-.8,.2-1.12c.13-.32,.31-.56,.55-.73,.24-.16,.52-.25,.84-.25,.49,0,.88,.18,1.17,.55,.29,.37,.44,.88,.44,1.54s-.15,1.16-.44,1.53Z"/><path class="d" d="M148.06,5.7c-.32-.17-.7-.26-1.14-.26-.38,0-.72,.08-1.04,.24-.32,.16-.61,.41-.88,.74-.19-.33-.43-.57-.72-.73-.29-.16-.64-.24-1.05-.24s-.75,.08-1.07,.24c-.32,.16-.62,.4-.9,.74v-.15c0-.26-.07-.47-.22-.62-.15-.14-.33-.22-.56-.22s-.41,.08-.56,.24c-.14,.16-.21,.39-.21,.7v4.63c0,.34,.08,.59,.23,.77,.15,.17,.36,.26,.61,.26s.45-.09,.6-.26c.15-.17,.23-.43,.23-.77v-2.19c0-.68,.08-1.21,.25-1.57,.17-.37,.52-.55,1.05-.55,.26,0,.46,.07,.58,.22,.12,.14,.2,.33,.23,.55,.03,.23,.04,.54,.04,.95v2.58c0,.34,.08,.59,.23,.77,.15,.17,.35,.26,.6,.26s.45-.09,.61-.26c.16-.17,.23-.43,.23-.77v-2.15c0-.7,.06-1.18,.18-1.45,.11-.21,.26-.38,.45-.51,.19-.12,.39-.19,.61-.19,.27,0,.46,.07,.6,.21,.13,.14,.21,.32,.24,.53,.03,.21,.04,.49,.04,.84v2.72c0,.34,.08,.59,.23,.77,.16,.17,.36,.26,.6,.26s.46-.09,.61-.26c.15-.17,.23-.43,.23-.77v-3.16c0-.63-.07-1.09-.21-1.39-.16-.32-.4-.57-.72-.75Z"/></g><g><path class="d" d="M69.77,8.33h0Z"/><path class="d" d="M69.85,8.85h0c-.03-.15-.05-.29-.07-.44,.02,.14,.04,.29,.07,.44Z"/><path class="d" d="M70.38,10.35v0Z"/><path class="d" d="M70.33,10.25s-.03-.06-.04-.08c.01,.03,.03,.06,.04,.08Z"/><path class="d" d="M70,9.43c.08,.25,.18,.49,.29,.72-.11-.24-.21-.48-.28-.72h0Z"/><path class="d" d="M75.23,1.57l-.08-.26c.3-.06,.52-.33,.52-.65,0-.36-.3-.66-.66-.66s-.66,.3-.66,.66c0,.32,.22,.58,.52,.65l.08,.29c-1.02,.14-1.83,.54-1.83,.54l.14,.44c.62-.21,1.15-.33,1.64-.38,.47-.05,.83-.07,1.13-.07,.31,0,.54,.03,.81,.07l.08-.47s-.73-.23-1.7-.15Z"/><path class="d" d="M69.95,4.07s-.5,.46-.87,1.28c-.02-.03-.04-.05-.06-.08-.11-.12-.27-.19-.47-.18h0c-.12,0-.21-.04-.27-.09,.06-.07,.09-.16,.09-.26,0-.23-.19-.42-.42-.42s-.42,.19-.42,.42,.19,.42,.42,.42c.04,0,.07,0,.1-.01,.1,.11,.27,.21,.5,.21,.12,0,.21,.03,.27,.1,.07,.07,.09,.18,.1,.27h0c-.27,.75-.2,1.67-.2,1.67l.66,.03c.01-.34,.06-.92,.23-1.39,.33-.91,.74-1.47,.76-1.5h0s.05-.06,.07-.09l-.2-.14-.3-.22Z"/><path class="d" d="M81.79,2.67c-.23,0-.42,.19-.42,.42,0,.04,0,.07,.02,.11-.12,.1-.21,.27-.21,.51,0,.12-.03,.21-.1,.27-.05,.05-.12,.07-.18,.09-.49-.69-1.1-1.11-1.1-1.11l-.47,.51c.36,.33,.72,.73,1.08,1.24,.24,.35,.5,.8,.71,1.26l.64-.3s-.29-.72-.7-1.37c.07-.03,.14-.06,.21-.12,.12-.11,.19-.27,.18-.47,0-.13,.04-.22,.09-.28,.07,.05,.16,.09,.26,.09,.23,0,.42-.19,.42-.42s-.19-.42-.42-.42Z"/><path class="d" d="M80.13,8.42c-.88,.43-2.33,1-4.24,1.26-.75,.1-1.48,.14-2.14,.14-.87,0-1.64-.06-2.23-.14-.67-.08-1.2-.19-1.52-.26,.08,.24,.17,.49,.28,.72v.02s.04,.06,.05,.08c.01,.03,.03,.05,.04,.08v.02c.2,.36,.43,.68,.69,.97,.9,.98,1.82,1.14,1.83,1.14h.03s.82,.27,2.06,.27,2.41-.24,3.55-.73c.84-.43,1.64-1.09,2.03-1.67,.3-.45,.53-.93,.66-1.43,.07-.27,.12-.69,.09-1.14-.25,.17-.64,.4-1.17,.66Z"/><path class="d" d="M76.82,2.54c-.27-.04-.48-.07-.78-.07-.28,0-.63,.02-1.09,.07-.46,.05-.98,.17-1.58,.37-.84,.28-1.6,.72-2.2,1.28l-.02,.02c-.09,.08-.28,.25-.49,.53-.03,.04-.41,.58-.71,1.41-.23,.62-.22,1.53-.22,1.54h0c0,.21,.01,.42,.04,.63h0s0,.06,0,.09c.02,.14,.04,.29,.07,.44,.44,.11,3.05,.72,5.97,.31,1.83-.25,3.22-.79,4.06-1.21,.7-.34,1.15-.65,1.33-.77-.17-.64-.65-1.65-1.09-2.28-1.25-1.79-2.61-2.25-3.3-2.37Zm-3.64,5.26c-.97,0-1.76-.79-1.76-1.76s.79-1.76,1.76-1.76,1.76,.79,1.76,1.76-.79,1.76-1.76,1.76Zm5.15-1.3c-.6,0-1.09-.49-1.09-1.09s.49-1.09,1.09-1.09,1.09,.49,1.09,1.09-.49,1.09-1.09,1.09Z"/></g></g></g></g></g></svg>